<svg width="34" height="34" viewBox="0 0 34 34" fill="none" xmlns="http://www.w3.org/2000/svg">
<path d="M8.21745 29.325C7.62717 29.325 7.12543 29.1185 6.71224 28.7053C6.29905 28.2921 6.09245 27.7903 6.09245 27.2V11.5105C5.69106 11.3688 5.3546 11.115 5.08307 10.749C4.81155 10.383 4.67578 9.96394 4.67578 9.49172V6.80005C4.67578 6.20977 4.88238 5.70803 5.29557 5.29484C5.70877 4.88165 6.2105 4.67505 6.80078 4.67505H27.2008C27.7911 4.67505 28.2928 4.88165 28.706 5.29484C29.1192 5.70803 29.3258 6.20977 29.3258 6.80005V9.49172C29.3258 9.96394 29.19 10.383 28.9185 10.749C28.647 11.115 28.3105 11.3688 27.9091 11.5105V27.2C27.9091 27.7903 27.7025 28.2921 27.2893 28.7053C26.8761 29.1185 26.3744 29.325 25.7841 29.325H8.21745ZM7.08411 11.6167V27.023C7.08411 27.4007 7.21988 27.7136 7.49141 27.9615C7.76293 28.2094 8.09939 28.3334 8.50078 28.3334H25.7841C26.1147 28.3334 26.3862 28.2271 26.5987 28.0146C26.8112 27.8021 26.9174 27.5306 26.9174 27.2V11.6167H7.08411ZM6.80078 10.625H27.2008C27.5313 10.625 27.8029 10.5188 28.0154 10.3063C28.2279 10.0938 28.3341 9.82227 28.3341 9.49172V6.80005C28.3341 6.46949 28.2279 6.19797 28.0154 5.98547C27.8029 5.77297 27.5313 5.66672 27.2008 5.66672H6.80078C6.47023 5.66672 6.1987 5.77297 5.9862 5.98547C5.7737 6.19797 5.66745 6.46949 5.66745 6.80005V9.49172C5.66745 9.82227 5.7737 10.0938 5.9862 10.3063C6.1987 10.5188 6.47023 10.625 6.80078 10.625ZM13.4591 17.7438H20.5424V17H13.4591V17.7438Z" fill="#1F1F1F"/>
</svg>
