<svg width="34" height="34" viewBox="0 0 34 34" fill="none" xmlns="http://www.w3.org/2000/svg">
<path d="M16.9995 30.0334C16.4092 30.0334 15.9075 29.8268 15.4943 29.4136C15.0811 29.0004 14.8745 28.4987 14.8745 27.9084H19.1245C19.1245 28.4987 18.9179 29.0004 18.5047 29.4136C18.0915 29.8268 17.5898 30.0334 16.9995 30.0334ZM7.50781 26.4917V25.5H9.63281V13.8834C9.63281 12.2306 10.1227 10.7549 11.1026 9.4563C12.0825 8.15769 13.3516 7.27227 14.9099 6.80005C14.8391 6.98894 14.78 7.18373 14.7328 7.38442C14.6856 7.58512 14.6384 7.79172 14.5911 8.00422C13.4342 8.47644 12.4839 9.2379 11.7401 10.2886C10.9964 11.3393 10.6245 12.5375 10.6245 13.8834V25.5H23.3745V18.3813C23.5398 18.3813 23.705 18.3754 23.8703 18.3636C24.0356 18.3518 24.2009 18.3341 24.3661 18.3105V25.5H26.4911V26.4917H7.50781ZM22.5245 14.7334L22.4536 13.7417C21.9578 13.6473 21.4915 13.4879 21.0547 13.2636C20.6179 13.0393 20.2342 12.7264 19.9036 12.325L18.9828 12.75L18.4161 11.9709L19.1953 11.3334C19.0064 10.7903 18.912 10.2473 18.912 9.70422C18.912 9.16116 19.0064 8.6181 19.1953 8.07505L18.4161 7.43755L18.9828 6.65838L19.9036 7.08338C20.2106 6.68199 20.5884 6.36915 21.037 6.14484C21.4856 5.92053 21.9578 5.76116 22.4536 5.66672L22.5245 4.67505H23.5161L23.587 5.66672C24.0828 5.76116 24.555 5.92053 25.0036 6.14484C25.4523 6.36915 25.83 6.68199 26.137 7.08338L27.0578 6.65838L27.6245 7.43755L26.8453 8.07505C27.0342 8.6181 27.1286 9.16116 27.1286 9.70422C27.1286 10.2473 27.0342 10.7903 26.8453 11.3334L27.6245 11.9709L27.0578 12.75L26.137 12.325C25.8064 12.7264 25.4227 13.0393 24.9859 13.2636C24.5491 13.4879 24.0828 13.6473 23.587 13.7417L23.5161 14.7334H22.5245ZM23.0203 12.8209C23.8939 12.8209 24.6318 12.5198 25.2339 11.9178C25.8359 11.3157 26.137 10.5778 26.137 9.70422C26.137 8.8306 25.8359 8.09276 25.2339 7.49067C24.6318 6.88859 23.8939 6.58755 23.0203 6.58755C22.1467 6.58755 21.4089 6.88859 20.8068 7.49067C20.2047 8.09276 19.9036 8.8306 19.9036 9.70422C19.9036 10.5778 20.2047 11.3157 20.8068 11.9178C21.4089 12.5198 22.1467 12.8209 23.0203 12.8209Z" fill="#1F1F1F"/>
</svg>
