<svg width="34" height="34" viewBox="0 0 34 34" fill="none" xmlns="http://www.w3.org/2000/svg">
<path d="M5.66745 25.5V14.7333V15.4771V8.49997V25.5ZM5.66745 12.8208H28.3341V9.6333C28.3341 9.34997 28.2161 9.09025 27.9799 8.85413C27.7438 8.61802 27.4841 8.49997 27.2008 8.49997H6.80078C6.51745 8.49997 6.25773 8.61802 6.02161 8.85413C5.7855 9.09025 5.66745 9.34997 5.66745 9.6333V12.8208ZM15.832 26.4916H6.80078C6.18689 26.4916 5.67925 26.2909 5.27786 25.8896C4.87648 25.4882 4.67578 24.9805 4.67578 24.3666V9.6333C4.67578 9.01941 4.87648 8.51177 5.27786 8.11038C5.67925 7.709 6.18689 7.5083 6.80078 7.5083H27.2008C27.8147 7.5083 28.3223 7.709 28.7237 8.11038C29.1251 8.51177 29.3258 9.01941 29.3258 9.6333V15.9729C28.6411 15.5715 27.9091 15.2646 27.1299 15.0521C26.3508 14.8396 25.5362 14.7333 24.6862 14.7333C24.0251 14.7333 23.3817 14.7982 22.756 14.9281C22.1303 15.058 21.5341 15.2527 20.9674 15.5125H5.66745V24.3666C5.66745 24.65 5.7855 24.9097 6.02161 25.1458C6.25773 25.3819 6.51745 25.5 6.80078 25.5H15.6195C15.6668 25.6889 15.7022 25.86 15.7258 26.0135C15.7494 26.167 15.7848 26.3264 15.832 26.4916ZM24.1904 28.9708L24.1195 27.9791C23.6237 27.8847 23.1574 27.7253 22.7206 27.501C22.2838 27.2767 21.9001 26.9639 21.5695 26.5625L20.6487 26.9875L20.082 26.2083L20.8612 25.5708C20.6723 25.0277 20.5779 24.4847 20.5779 23.9416C20.5779 23.3986 20.6723 22.8555 20.8612 22.3125L20.082 21.675L20.6487 20.8958L21.5695 21.3208C21.8765 20.9194 22.2543 20.6066 22.7029 20.3823C23.1515 20.158 23.6237 19.9986 24.1195 19.9041L24.1904 18.9125H25.182L25.2529 19.9041C25.7487 19.9986 26.2209 20.158 26.6695 20.3823C27.1181 20.6066 27.4959 20.9194 27.8029 21.3208L28.7237 20.8958L29.2904 21.675L28.5112 22.3125C28.7001 22.8555 28.7945 23.3986 28.7945 23.9416C28.7945 24.4847 28.7001 25.0277 28.5112 25.5708L29.2904 26.2083L28.7237 26.9875L27.8029 26.5625C27.4723 26.9639 27.0886 27.2767 26.6518 27.501C26.215 27.7253 25.7487 27.8847 25.2529 27.9791L25.182 28.9708H24.1904ZM24.6862 27.0583C25.5598 27.0583 26.2977 26.7573 26.8997 26.1552C27.5018 25.5531 27.8029 24.8152 27.8029 23.9416C27.8029 23.068 27.5018 22.3302 26.8997 21.7281C26.2977 21.126 25.5598 20.825 24.6862 20.825C23.8126 20.825 23.0747 21.126 22.4727 21.7281C21.8706 22.3302 21.5695 23.068 21.5695 23.9416C21.5695 24.8152 21.8706 25.5531 22.4727 26.1552C23.0747 26.7573 23.8126 27.0583 24.6862 27.0583Z" fill="#1F1F1F"/>
</svg>
