<svg width="34" height="34" viewBox="0 0 34 34" fill="none" xmlns="http://www.w3.org/2000/svg">
<path d="M16.5036 22.6667H17.4953V14.8042H16.5036V22.6667ZM16.9995 12.75C17.2002 12.75 17.3684 12.6821 17.5042 12.5463C17.6399 12.4106 17.7078 12.2423 17.7078 12.0417C17.7078 11.841 17.6399 11.6727 17.5042 11.537C17.3684 11.4012 17.2002 11.3333 16.9995 11.3333C16.7988 11.3333 16.6306 11.4012 16.4948 11.537C16.359 11.6727 16.2911 11.841 16.2911 12.0417C16.2911 12.2423 16.359 12.4106 16.4948 12.5463C16.6306 12.6821 16.7988 12.75 16.9995 12.75ZM16.9995 29.2542C14.2842 28.4042 12.0234 26.7278 10.2172 24.225C8.41094 21.7222 7.50781 18.8889 7.50781 15.725V8.35832L16.9995 4.81665L26.4911 8.35832V15.725C26.4911 18.8889 25.588 21.7222 23.7818 24.225C21.9755 26.7278 19.7148 28.4042 16.9995 29.2542ZM16.9995 28.1917C19.455 27.4125 21.4856 25.8542 23.0911 23.5167C24.6967 21.1791 25.4995 18.5819 25.4995 15.725V9.03123L16.9995 5.87915L8.49948 9.03123V15.725C8.49948 18.5819 9.30226 21.1791 10.9078 23.5167C12.5134 25.8542 14.5439 27.4125 16.9995 28.1917Z" fill="#1F1F1F"/>
</svg>
