<svg width="34" height="34" viewBox="0 0 34 34" fill="none" xmlns="http://www.w3.org/2000/svg">
<path d="M10.8379 26.4916C9.91706 26.4916 9.13199 26.167 8.48268 25.5177C7.83338 24.8684 7.50872 24.0833 7.50872 23.1625H4.46289L4.67539 22.1708H7.65039C7.86289 21.4861 8.25838 20.9253 8.83685 20.4885C9.41532 20.0517 10.0823 19.8333 10.8379 19.8333C11.5934 19.8333 12.2605 20.0517 12.8389 20.4885C13.4174 20.9253 13.8129 21.4861 14.0254 22.1708H20.7546L23.9066 8.49997H8.39414C8.44136 8.21663 8.57713 7.98052 8.80143 7.79163C9.02574 7.60275 9.29136 7.5083 9.59831 7.5083H25.1462L24.0483 12.2541H26.6337L30.3525 17.2125L29.1837 23.1625H27.9087C27.9087 24.0833 27.5841 24.8684 26.9348 25.5177C26.2855 26.167 25.5004 26.4916 24.5796 26.4916C23.6587 26.4916 22.8737 26.167 22.2243 25.5177C21.575 24.8684 21.2504 24.0833 21.2504 23.1625H14.1671C14.1671 24.0833 13.8424 24.8684 13.1931 25.5177C12.5438 26.167 11.7587 26.4916 10.8379 26.4916ZM22.49 18.8771H29.0066L29.29 17.4604L26.1379 13.2458H23.8004L22.49 18.8771ZM23.4816 10.2708L23.9066 8.49997L20.7546 22.1708L21.1796 20.4L22.2775 15.5125L23.4816 10.2708ZM2.86914 18.275L3.11706 17.2833H9.03164L8.78372 18.275H2.86914ZM5.70247 13.3875L5.95039 12.3958H13.2816L13.0337 13.3875H5.70247ZM10.8379 25.5C11.4754 25.5 12.0243 25.2698 12.4848 24.8093C12.9452 24.3489 13.1754 23.8 13.1754 23.1625C13.1754 22.525 12.9452 21.976 12.4848 21.5156C12.0243 21.0552 11.4754 20.825 10.8379 20.825C10.2004 20.825 9.65143 21.0552 9.19102 21.5156C8.7306 21.976 8.50039 22.525 8.50039 23.1625C8.50039 23.8 8.7306 24.3489 9.19102 24.8093C9.65143 25.2698 10.2004 25.5 10.8379 25.5ZM24.5796 25.5C25.2171 25.5 25.766 25.2698 26.2264 24.8093C26.6868 24.3489 26.9171 23.8 26.9171 23.1625C26.9171 22.525 26.6868 21.976 26.2264 21.5156C25.766 21.0552 25.2171 20.825 24.5796 20.825C23.9421 20.825 23.3931 21.0552 22.9327 21.5156C22.4723 21.976 22.2421 22.525 22.2421 23.1625C22.2421 23.8 22.4723 24.3489 22.9327 24.8093C23.3931 25.2698 23.9421 25.5 24.5796 25.5Z" fill="#1F1F1F"/>
</svg>
