<svg width="14" height="14" viewBox="0 0 14 14" fill="none" xmlns="http://www.w3.org/2000/svg">
<path d="M1.41345 14C1.01073 14 0.674479 13.8651 0.404687 13.5953C0.134896 13.3255 0 12.9893 0 12.5865V1.41345C0 1.01073 0.134896 0.674479 0.404687 0.404687C0.674479 0.134896 1.01073 0 1.41345 0H7.01682V0.875H1.41345C1.27885 0.875 1.15545 0.931088 1.04326 1.04326C0.931087 1.15545 0.875 1.27885 0.875 1.41345V12.5865C0.875 12.7212 0.931087 12.8445 1.04326 12.9567C1.15545 13.0689 1.27885 13.125 1.41345 13.125H7.01682V14H1.41345ZM10.9038 10.0962L10.2896 9.46682L12.319 7.4375H4.54326V6.5625H12.319L10.2896 4.53318L10.9038 3.90383L14 7L10.9038 10.0962Z" fill="black"/>
</svg>
