<svg width="22" height="22" viewBox="0 0 22 22" fill="none" xmlns="http://www.w3.org/2000/svg">
<path d="M22 4.80316V19.6606C22 20.3143 21.7735 20.8676 21.3206 21.3206C20.8676 21.7735 20.3143 22 19.6606 22H2.33938C1.68568 22 1.13236 21.7735 0.679414 21.3206C0.226471 20.8676 0 20.3143 0 19.6606V2.33938C0 1.68568 0.226471 1.13236 0.679414 0.679414C1.13236 0.226471 1.68568 0 2.33938 0H17.1968L22 4.80316ZM20.0588 5.6294L16.3706 1.94115H2.33938C2.22324 1.94115 2.12783 1.97848 2.05316 2.05316C1.97848 2.12783 1.94115 2.22324 1.94115 2.33938V19.6606C1.94115 19.7768 1.97848 19.8722 2.05316 19.9468C2.12783 20.0215 2.22324 20.0588 2.33938 20.0588H19.6606C19.7768 20.0588 19.8722 20.0215 19.9468 19.9468C20.0215 19.8722 20.0588 19.7768 20.0588 19.6606V5.6294ZM11 17.819C11.8959 17.819 12.6591 17.5037 13.2896 16.8733C13.92 16.2428 14.2353 15.4796 14.2353 14.5837C14.2353 13.6878 13.92 12.9246 13.2896 12.2941C12.6591 11.6637 11.8959 11.3484 11 11.3484C10.1041 11.3484 9.34089 11.6637 8.71044 12.2941C8.07996 12.9246 7.76473 13.6878 7.76473 14.5837C7.76473 15.4796 8.07996 16.2428 8.71044 16.8733C9.34089 17.5037 10.1041 17.819 11 17.819ZM3.73305 8.26241H14.3597V3.73305H3.73305V8.26241ZM1.94115 5.6294V20.0588V1.94115V5.6294Z" fill="black"/>
</svg>
