<svg width="14" height="14" viewBox="0 0 14 14" fill="none" xmlns="http://www.w3.org/2000/svg">
<path d="M13.2923 13.7077L9.4154 10.1231C8.9154 10.5487 8.3404 10.8782 7.6904 11.1116C7.0404 11.3449 6.38719 11.4616 5.73077 11.4616C4.12911 11.4616 2.77357 10.9071 1.66415 9.79833C0.554716 8.68951 0 7.3347 0 5.7339C0 4.1331 0.554408 2.77725 1.66322 1.66635C2.77204 0.55545 4.12685 0 5.72765 0C7.32847 0 8.68432 0.554708 9.7952 1.66413C10.9061 2.77354 11.4615 4.12909 11.4615 5.73078C11.4615 6.42564 11.3385 7.09808 11.0923 7.74808C10.8462 8.39808 10.5231 8.95385 10.1231 9.4154L14 13L13.2923 13.7077ZM5.73077 10.4616C7.05771 10.4616 8.1779 10.0048 9.09135 9.09135C10.0048 8.17789 10.4615 7.05769 10.4615 5.73078C10.4615 4.40386 10.0048 3.28367 9.09135 2.3702C8.1779 1.45673 7.05771 1 5.73077 1C4.40386 1 3.28367 1.45673 2.3702 2.3702C1.45675 3.28367 1.00002 4.40386 1.00002 5.73078C1.00002 7.05769 1.45675 8.17789 2.3702 9.09135C3.28367 10.0048 4.40386 10.4616 5.73077 10.4616Z" fill="black"/>
</svg>
