<svg width="22" height="22" viewBox="0 0 22 22" fill="none" xmlns="http://www.w3.org/2000/svg">
<path d="M10.1316 16.5H11.8684V11.8684H16.5V10.1316H11.8684V5.50001H10.1316V10.1316H5.50001V11.8684H10.1316V16.5ZM11.0019 22C9.48054 22 8.0505 21.7113 6.71181 21.1339C5.37311 20.5565 4.20863 19.7729 3.21838 18.7831C2.2281 17.7932 1.44414 16.6293 0.866484 15.2912C0.288828 13.9531 0 12.5233 0 11.0019C0 9.48054 0.288703 8.0505 0.866108 6.71181C1.44351 5.37311 2.22712 4.20863 3.21693 3.21838C4.20676 2.22811 5.37073 1.44414 6.70883 0.866485C8.04692 0.288829 9.47666 0 10.9981 0C12.5195 0 13.9495 0.288704 15.2882 0.866109C16.6269 1.44351 17.7914 2.22712 18.7816 3.21693C19.7719 4.20676 20.5559 5.37073 21.1335 6.70883C21.7112 8.04692 22 9.47666 22 10.9981C22 12.5195 21.7113 13.9495 21.1339 15.2882C20.5565 16.6269 19.7729 17.7914 18.7831 18.7816C17.7932 19.7719 16.6293 20.5559 15.2912 21.1335C13.9531 21.7112 12.5233 22 11.0019 22ZM11 20.2632C13.586 20.2632 15.7763 19.3658 17.5711 17.5711C19.3658 15.7763 20.2632 13.586 20.2632 11C20.2632 8.41403 19.3658 6.22367 17.5711 4.42893C15.7763 2.63419 13.586 1.73682 11 1.73682C8.41403 1.73682 6.22367 2.63419 4.42893 4.42893C2.63419 6.22367 1.73682 8.41403 1.73682 11C1.73682 13.586 2.63419 15.7763 4.42893 17.5711C6.22367 19.3658 8.41403 20.2632 11 20.2632Z" fill="#731EE2"/>
</svg>
