<svg width="13" height="16" viewBox="0 0 13 16" fill="none" xmlns="http://www.w3.org/2000/svg">
<path d="M4.06313 8.49354H5.53228V6.42755H7.00143V8.49354H8.47059V4.95839L6.26686 3.48924L4.06313 4.95839V8.49354ZM6.26686 15.1277C7.95026 13.6891 9.30846 12.1703 10.3415 10.571C11.3745 8.97178 11.891 7.59828 11.891 6.4505C11.891 4.7671 11.3592 3.37446 10.2956 2.2726C9.23195 1.17073 7.88905 0.619799 6.26686 0.619799C4.64467 0.619799 3.30177 1.17073 2.23816 2.2726C1.17456 3.37446 0.642755 4.7671 0.642755 6.4505C0.642755 7.59828 1.15925 8.97178 2.19225 10.571C3.22525 12.1703 4.58345 13.6891 6.26686 15.1277ZM6.26686 16C4.20086 14.1483 2.63988 12.4189 1.58393 10.8121C0.527977 9.20516 0 7.75132 0 6.4505C0 4.61406 0.60067 3.07987 1.80201 1.84792C3.00335 0.615973 4.49163 0 6.26686 0C8.04208 0 9.53037 0.615973 10.7317 1.84792C11.933 3.07987 12.5337 4.61406 12.5337 6.4505C12.5337 7.75132 12.0057 9.20516 10.9498 10.8121C9.89383 12.4189 8.33285 14.1483 6.26686 16Z" fill="black"/>
</svg>
