<svg width="43" height="32" viewBox="0 0 43 32" fill="none" xmlns="http://www.w3.org/2000/svg">
<path d="M35.3433 16.9552V15.2836H42.5075V16.9552H35.3433ZM37.8507 32L32.1194 27.7015L33.194 26.3881L38.9254 30.6866L37.8507 32ZM32.9552 5.61194L31.8806 4.29851L37.6119 0L38.6866 1.31343L32.9552 5.61194ZM6.08955 29.6119V20.6567H3.58209C2.58706 20.6567 1.74129 20.3085 1.04478 19.6119C0.348259 18.9154 0 18.0697 0 17.0746V15.1642C0 14.1692 0.348259 13.3234 1.04478 12.6269C1.74129 11.9303 2.58706 11.5821 3.58209 11.5821H12.2985L21.0149 6.44776V25.791L12.2985 20.6567H7.76119V29.6119H6.08955ZM19.3433 22.806V9.43284L12.7761 13.2537H3.58209C3.10448 13.2537 2.66667 13.4527 2.26866 13.8507C1.87065 14.2488 1.67164 14.6866 1.67164 15.1642V17.0746C1.67164 17.5522 1.87065 17.99 2.26866 18.3881C2.66667 18.7861 3.10448 18.9851 3.58209 18.9851H12.7761L19.3433 22.806ZM25.791 22.6866V9.55224C26.5075 10.2289 27.0846 11.1443 27.5224 12.2985C27.9602 13.4527 28.1791 14.7264 28.1791 16.1194C28.1791 17.5124 27.9602 18.7861 27.5224 19.9403C27.0846 21.0945 26.5075 22.01 25.791 22.6866Z" fill="url(#paint0_linear_3356_2342)"/>
<defs>
<linearGradient id="paint0_linear_3356_2342" x1="3.68887" y1="-3.2" x2="30.9128" y2="41.2592" gradientUnits="userSpaceOnUse">
<stop stop-color="#0F52BA"/>
<stop offset="1" stop-color="#8225AF"/>
</linearGradient>
</defs>
</svg>
