<svg width="16" height="21" viewBox="0 0 16 21" fill="none" xmlns="http://www.w3.org/2000/svg">
<path d="M0 17.4992V16.7038H1.70447V7.38603C1.70447 5.92777 2.1732 4.64941 3.11066 3.55098C4.04811 2.45254 5.22704 1.78022 6.64743 1.53402V0.965866C6.64743 0.697507 6.74099 0.469486 6.9281 0.281805C7.11521 0.0939347 7.34248 0 7.60989 0C7.8773 0 8.1057 0.0939347 8.29508 0.281805C8.48447 0.469486 8.57916 0.697507 8.57916 0.965866V1.53402C9.99955 1.78022 11.1785 2.45254 12.1159 3.55098C13.0534 4.64941 13.5221 5.92777 13.5221 7.38603V16.7038H15.2266V17.4992H0ZM7.60818 20.34C7.13813 20.34 6.73739 20.1731 6.40596 19.8392C6.07454 19.5055 5.90883 19.1043 5.90883 18.6355H9.31777C9.31777 19.109 9.15035 19.5114 8.81552 19.8429C8.48087 20.1743 8.07843 20.34 7.60818 20.34ZM2.49989 16.7038H12.7267V7.38603C12.7267 5.96564 12.2296 4.75831 11.2353 3.76404C10.241 2.76976 9.03369 2.27263 7.6133 2.27263C6.19291 2.27263 4.98557 2.76976 3.9913 3.76404C2.99703 4.75831 2.49989 5.96564 2.49989 7.38603V16.7038Z" fill="black"/>
</svg>
