<svg width="16" height="21" viewBox="0 0 16 21" fill="none" xmlns="http://www.w3.org/2000/svg">
<path d="M1.72414 20.3373C1.22605 20.3373 0.814176 20.1717 0.488506 19.8405C0.162835 19.5094 0 19.0905 0 18.5841V6.42845C0 5.92197 0.162835 5.50314 0.488506 5.17198C0.814176 4.84082 1.22605 4.67524 1.72414 4.67524H3.85057V3.91551C3.85057 2.82462 4.22414 1.89931 4.97126 1.13959C5.71839 0.379863 6.62835 0 7.70115 0C8.77395 0 9.68391 0.379863 10.431 1.13959C11.1782 1.89931 11.5517 2.82462 11.5517 3.91551V4.67524H13.6782C14.1762 4.67524 14.5881 4.84082 14.9138 5.17198C15.2395 5.50314 15.4023 5.92197 15.4023 6.42845V18.5841C15.4023 19.0905 15.2395 19.5094 14.9138 19.8405C14.5881 20.1717 14.1762 20.3373 13.6782 20.3373H1.72414ZM1.72414 19.5191H13.6782C13.908 19.5191 14.1188 19.4217 14.3103 19.2269C14.5019 19.0321 14.5977 18.8178 14.5977 18.5841V6.42845C14.5977 6.19469 14.5019 5.98041 14.3103 5.7856C14.1188 5.5908 13.908 5.4934 13.6782 5.4934H11.5517V8.59075C11.5517 8.70763 11.5134 8.80503 11.4368 8.88295C11.3602 8.96087 11.2644 8.99983 11.1494 8.99983C11.0345 8.99983 10.9387 8.96087 10.8621 8.88295C10.7854 8.80503 10.7471 8.70763 10.7471 8.59075V5.4934H4.65517V8.59075C4.65517 8.70763 4.61686 8.80503 4.54023 8.88295C4.4636 8.96087 4.36782 8.99983 4.25287 8.99983C4.13793 8.99983 4.04215 8.96087 3.96552 8.88295C3.88889 8.80503 3.85057 8.70763 3.85057 8.59075V5.4934H1.72414C1.49425 5.4934 1.28352 5.5908 1.09195 5.7856C0.900383 5.98041 0.804598 6.19469 0.804598 6.42845V18.5841C0.804598 18.8178 0.900383 19.0321 1.09195 19.2269C1.28352 19.4217 1.49425 19.5191 1.72414 19.5191ZM4.65517 4.67524H10.7471V3.91551C10.7471 3.0389 10.455 2.30353 9.87069 1.70938C9.2864 1.11524 8.56322 0.818166 7.70115 0.818166C6.83908 0.818166 6.1159 1.11524 5.53161 1.70938C4.94732 2.30353 4.65517 3.0389 4.65517 3.91551V4.67524Z" fill="black"/>
</svg>
