<svg width="20" height="22" viewBox="0 0 20 22" fill="none" xmlns="http://www.w3.org/2000/svg">
<path d="M3.65834 22C3.00853 22 2.45352 21.7699 1.99331 21.3097C1.53308 20.8494 1.30297 20.2944 1.30297 19.6446V3.10702H0V1.1526H5.86332V0H13.6811V1.1526H19.5444V3.10702H18.2415V19.6446C18.2415 20.3028 18.0134 20.8599 17.5574 21.3159C17.1014 21.772 16.5443 22 15.8861 22H3.65834ZM16.287 3.10702H3.25738V19.6446C3.25738 19.7616 3.29497 19.8576 3.37015 19.9328C3.44534 20.008 3.5414 20.0456 3.65834 20.0456H15.8861C15.9863 20.0456 16.0782 20.0038 16.1618 19.9203C16.2453 19.8368 16.287 19.7449 16.287 19.6446V3.10702ZM6.38955 17.4397H8.34397V5.71295H6.38955V17.4397ZM11.2005 17.4397H13.1549V5.71295H11.2005V17.4397Z" fill="black"/>
</svg>
