<svg width="64" height="64" viewBox="0 0 64 64" fill="none" xmlns="http://www.w3.org/2000/svg">
<path id="Vector" d="M26.5747 45.5172L49.3793 22.7126L47.8161 21.1494L26.5747 42.4828L15.908 31.8161L14.4368 33.3793L26.5747 45.5172ZM32.016 64C27.5915 64 23.4465 63.1604 19.5809 61.4813C15.7152 59.8021 12.3259 57.5079 9.41306 54.5987C6.50026 51.6895 4.20322 48.3045 2.52193 44.4438C0.840643 40.583 0 36.4405 0 32.016C0 27.5915 0.839572 23.4312 2.51871 19.5349C4.19792 15.6386 6.49211 12.2493 9.40129 9.36717C12.3105 6.48496 15.6955 4.20322 19.5562 2.52193C23.417 0.840646 27.5595 0 31.984 0C36.4085 0 40.5688 0.83957 44.4651 2.51871C48.3614 4.19792 51.7507 6.47678 54.6328 9.35531C57.515 12.2339 59.7968 15.6189 61.4781 19.5103C63.1594 23.4016 64 27.5595 64 31.984C64 36.4085 63.1604 40.5535 61.4813 44.4191C59.8021 48.2848 57.5232 51.6741 54.6447 54.5869C51.7661 57.4997 48.3811 59.7968 44.4897 61.4781C40.5984 63.1594 36.4405 64 32.016 64ZM32 61.977C40.3372 61.977 47.4176 59.0651 53.2414 53.2414C59.0651 47.4176 61.977 40.3372 61.977 32C61.977 23.6628 59.0651 16.5824 53.2414 10.7586C47.4176 4.93487 40.3372 2.02299 32 2.02299C23.6628 2.02299 16.5824 4.93487 10.7586 10.7586C4.93487 16.5824 2.02299 23.6628 2.02299 32C2.02299 40.3372 4.93487 47.4176 10.7586 53.2414C16.5824 59.0651 23.6628 61.977 32 61.977Z" fill="#0904F2"/>
</svg>
