<svg width="22" height="22" viewBox="0 0 22 22" fill="none" xmlns="http://www.w3.org/2000/svg">
<path d="M1.94115 20.0588H3.57372L16.8211 6.81148L15.1885 5.17891L1.94115 18.4263V20.0588ZM0 22V17.6199L17.07 0.557476C17.2657 0.379728 17.4817 0.242378 17.7182 0.145427C17.9547 0.0484755 18.2026 0 18.4621 0C18.7215 0 18.9729 0.0460498 19.2161 0.138148C19.4594 0.230225 19.6747 0.376633 19.8622 0.577372L21.4425 2.17759C21.6433 2.36506 21.7864 2.58079 21.8718 2.82478C21.9573 3.06874 22 3.3127 22 3.55667C22 3.81689 21.9556 4.06523 21.8667 4.30169C21.7778 4.53817 21.6364 4.75426 21.4425 4.94995L4.38005 22H0ZM15.9905 6.00951L15.1885 5.17891L16.8211 6.81148L15.9905 6.00951Z" fill="black"/>
</svg>
