<svg width="40" height="40" viewBox="0 0 40 40" fill="none" xmlns="http://www.w3.org/2000/svg">
<circle cx="20" cy="20" r="20" fill="white"/>
<path d="M26.4714 10V14.3848H30V30H13.5286V26.4714H10V10H26.4714ZM26.4714 26.4714H14.1214V29.4072H29.4072V14.9776H26.4714V26.4714ZM10.5928 25.8786H25.8786V23.6357L21.7689 18.7043L18.2603 23.0902L15.6091 20.439L11.4062 25.4826L10.9508 25.1031L15.5693 19.5609L18.2111 22.2026L21.7596 17.7671L25.8786 22.7099V10.5928H10.5928V25.8786ZM15.2929 15.5893C15.2929 15.2658 15.0306 15.0035 14.7071 15.0035C14.3836 15.0035 14.1214 15.2658 14.1214 15.5893C14.1214 15.9128 14.3836 16.175 14.7071 16.175C15.0306 16.175 15.2929 15.9128 15.2929 15.5893ZM15.8857 15.5893C15.8857 16.2402 15.358 16.7678 14.7071 16.7678C14.0562 16.7678 13.5286 16.2401 13.5286 15.5893C13.5286 14.9384 14.0562 14.4107 14.7071 14.4107C15.358 14.4107 15.8857 14.9384 15.8857 15.5893Z" fill="black"/>
</svg>
