<svg width="35" height="32" viewBox="0 0 35 32" fill="none" xmlns="http://www.w3.org/2000/svg">
<path d="M0.984461 29.0922V31.9998H16.6696H17.3762H34.8989V28.7929C34.8989 27.604 34.4903 26.4377 33.7484 25.5088C33.0064 24.5799 31.9592 23.9234 30.7997 23.6607L27.9925 23.0245L27.9926 21.857C28.6179 21.5828 29.1935 21.1928 29.691 20.6954C30.3071 20.0791 30.7746 19.3187 31.0423 18.4968C31.1083 18.296 31.1621 18.0918 31.2045 17.885C32.1294 17.7667 32.8467 16.9752 32.8467 16.0187C32.8467 15.5185 32.6491 15.0448 32.3002 14.6936V10.3777C32.3002 7.80227 30.0913 5.61797 27.4358 5.51876V5.51403H27.4249C27.0948 5.1203 26.6082 4.88945 26.0876 4.88867H26.0793C26.0731 4.88867 26.0669 4.88867 26.0605 4.88867C24.2656 4.88867 22.5632 5.60073 21.2655 6.8949C19.9355 8.2213 19.203 9.97484 19.203 11.8326V14.7161C18.8678 15.0648 18.6779 15.5306 18.6779 16.0187C18.6779 16.9751 19.395 17.7664 20.3197 17.885C20.3621 18.0916 20.4158 18.2957 20.4817 18.4962C20.9907 20.0537 22.1363 21.2628 23.5758 21.877V23.0245L20.7686 23.6608C19.8408 23.8711 18.9853 24.334 18.3001 24.9863C18.3105 24.8654 18.317 24.7439 18.317 24.6219C18.317 23.3027 17.7245 22.0741 16.6911 21.2507C16.3557 20.9839 16.1634 20.5878 16.1634 20.1641V12.9725C16.1634 11.0748 15.4154 9.28751 14.0572 7.94006C12.7239 6.61727 10.9717 5.89864 9.12449 5.9115C7.28001 5.92606 5.54603 6.65232 4.24204 7.95638C2.92293 9.27486 2.19645 11.0285 2.19645 12.8941V20.1309C2.19645 20.5601 2.00029 20.9596 1.65836 21.2267C0.604441 22.0488 0 23.2862 0 24.622C0 25.7407 0.440435 26.8196 1.21545 27.6189C1.06565 28.084 0.984461 28.5792 0.984461 29.0922ZM16.6696 31.2932H1.69108V29.0923C1.69108 27.1919 2.98546 25.5713 4.83878 25.1513L7.87293 24.4636L7.873 23.1066C8.28545 23.2071 8.71571 23.2617 9.15869 23.2617C9.617 23.2617 10.062 23.2041 10.4876 23.0965L10.4875 24.4636L13.5218 25.1513C14.2851 25.3243 14.9532 25.7013 15.4755 26.2173C14.2581 26.843 12.904 27.1731 11.5319 27.1731H3.13018V27.8797H11.5319C13.0705 27.8797 14.5888 27.4973 15.9426 26.7713C16.4041 27.4311 16.6695 28.2329 16.6695 29.0923V31.2932H16.6696ZM4.43756 20.5064C4.69343 20.9567 5.01162 21.367 5.38076 21.7254V22.418C5.38076 23.0379 5.4582 23.6531 5.60899 24.2521L4.74141 24.4487C4.53995 23.7964 4.43756 23.1213 4.43756 22.4373V20.5064ZM6.29816 24.0959C6.15874 23.5482 6.08745 22.9853 6.08745 22.418V22.3057C6.42196 22.5362 6.78375 22.7294 7.16652 22.8812V23.8991L6.29816 24.0959ZM13.7605 24.1271C13.7415 24.2403 13.7201 24.3536 13.6966 24.4667C13.6904 24.4652 13.6843 24.4635 13.678 24.4621L12.7435 24.2503C12.894 23.652 12.9713 23.0375 12.9713 22.418V21.6925C13.3258 21.3422 13.6317 20.9432 13.8796 20.507V22.6886C13.8796 23.1695 13.8395 23.6534 13.7605 24.1271ZM12.2647 22.418C12.2647 22.9847 12.1934 23.5469 12.0543 24.0941L11.1942 23.8991V22.864C11.5743 22.7097 11.9329 22.5135 12.2646 22.2811V22.418H12.2647ZM31.3045 17.1437C31.3129 17.0185 31.318 16.893 31.318 16.7669V16.6201C31.6731 16.4876 31.9629 16.2247 32.1333 15.8935C32.1378 15.9349 32.1402 15.9766 32.1402 16.0186C32.1402 16.5488 31.7874 16.9976 31.3045 17.1437ZM31.5936 10.3777V15.2117C31.5936 15.4478 31.4873 15.664 31.318 15.8116V15.4181C31.318 14.8258 31.1419 14.254 30.8084 13.7638C30.6838 13.5814 30.5871 13.38 30.5208 13.1651C30.4552 12.9525 30.4221 12.7316 30.4221 12.5082V11.7754C30.4221 10.6685 29.5212 9.76794 28.4165 9.76794L27.6038 9.76201C27.755 9.32694 27.8337 8.86566 27.8337 8.40346V6.63692C27.8337 6.50775 27.8196 6.3802 27.7921 6.25612C29.9018 6.52145 31.5936 8.30058 31.5936 10.3777ZM19.9096 11.8325C19.9096 10.1639 20.5683 8.58796 21.7645 7.39512C22.9288 6.23393 24.4539 5.59515 26.0616 5.59515C26.0672 5.59515 26.0729 5.59515 26.0784 5.59515H26.0871C26.4366 5.59564 26.761 5.77039 26.9549 6.06251C27.0675 6.23231 27.127 6.43087 27.127 6.6367V8.40325C27.127 8.94777 27.0025 9.46848 26.7572 9.95067C26.17 11.1022 25.0035 11.8176 23.7126 11.8176C22.7754 11.8176 21.8949 12.1825 21.2335 12.8446C20.5712 13.507 20.2065 14.3872 20.2065 15.3232V15.7502C20.0215 15.5758 19.9097 15.3292 19.9097 15.0596V11.8325H19.9096ZM19.3846 16.0187C19.3846 15.9594 19.3907 15.901 19.3994 15.8431C19.5742 16.1695 19.8558 16.4327 20.2065 16.5821V16.7669C20.2065 16.893 20.2115 17.0186 20.22 17.1436C19.7372 16.9973 19.3846 16.5486 19.3846 16.0187ZM21.1533 18.2761C20.9939 17.7912 20.9131 17.2834 20.9131 16.7669V15.3233C20.9131 14.5761 21.2043 13.8733 21.7332 13.3443C22.2614 12.8156 22.9643 12.5244 23.7126 12.5244C25.1964 12.5244 26.544 11.7413 27.281 10.4662L28.4138 10.4745C29.1315 10.4745 29.7154 11.0581 29.7154 11.7754V12.5081C29.7154 12.8022 29.7592 13.0932 29.8456 13.3732C29.9327 13.6559 30.0603 13.9214 30.2245 14.1618C30.4776 14.5337 30.6114 14.9681 30.6114 15.418V16.7669C30.6114 17.2834 30.5305 17.7912 30.3709 18.277C30.1371 18.9943 29.7293 19.6579 29.1915 20.1957C28.2753 21.1118 27.0576 21.6164 25.7627 21.6164C23.6585 21.6164 21.8062 20.2742 21.1533 18.2761ZM25.7626 22.323C26.2853 22.323 26.7966 22.2498 27.2861 22.1109V23.0926L25.7844 23.8761L24.2824 23.0926L24.2825 22.1234C24.7561 22.2535 25.2528 22.323 25.7626 22.323ZM20.925 24.3499L23.8807 23.68L25.7843 24.6731L27.6878 23.68L30.6436 24.3499C32.733 24.8235 34.1923 26.6505 34.1923 28.793V31.2932H31.1896V29.2339H30.483V31.2932H20.9972V29.2339H20.2905V31.2932H17.3762V29.0923V28.7931C17.3762 26.6505 18.8355 24.8235 20.925 24.3499ZM0.706901 24.6219C0.706901 23.5054 1.21213 22.471 2.09343 21.7836C2.60813 21.3816 2.90335 20.7791 2.90335 20.1309V12.894C2.90335 11.2172 3.55627 9.6411 4.74197 8.45603C5.91411 7.2839 7.47263 6.63112 9.13036 6.61805C10.7877 6.60243 12.3613 7.25252 13.5598 8.44162C14.7832 9.65538 15.4571 11.2645 15.4571 12.9725V20.1641C15.4571 20.8044 15.7466 21.402 16.2512 21.8035C17.1152 22.4918 17.6106 23.5191 17.6106 24.6219C17.6106 25.4508 17.335 26.2304 16.8268 26.8643C16.3067 25.8795 15.4465 25.097 14.3745 24.6769C14.4054 24.5328 14.4333 24.3879 14.4575 24.2434C14.5429 23.7314 14.5862 23.2083 14.5862 22.6885V16.8358C14.5862 14.676 13.2034 12.7889 11.1452 12.1403L10.9328 12.8142C12.6954 13.3697 13.8796 14.9859 13.8796 16.8358V17.8341C13.8796 20.4372 11.7619 22.555 9.15876 22.555C6.55565 22.555 4.43785 20.4372 4.43785 17.8341H4.43756V16.9327C4.43756 15.3877 5.3361 13.9702 6.73026 13.3092L6.76976 13.291C8.4354 12.5238 9.51172 10.8424 9.51172 9.00748V8.40297H8.8051V9.00748C8.8051 10.5524 7.90769 11.9693 6.51509 12.63L6.47347 12.6492C4.80748 13.4171 3.73094 15.0985 3.73094 16.9326V22.4372C3.73094 23.1885 3.84308 23.9301 4.06327 24.6468C2.94405 25.0632 2.04827 25.8721 1.5176 26.895C0.99824 26.2572 0.706901 25.4528 0.706901 24.6219Z" fill="url(#paint0_linear_3356_2347)"/>
<path d="M8.54348 19.7991L7.90576 20.1033C8.1388 20.5918 8.63916 20.9074 9.1805 20.9074C9.72135 20.9074 10.2216 20.5919 10.4551 20.1036L9.81766 19.7988C9.70092 20.043 9.45085 20.2008 9.1805 20.2008C8.90994 20.2008 8.65986 20.0431 8.54348 19.7991Z" fill="url(#paint1_linear_3356_2347)"/>
<path d="M7.18066 16.4541C6.99341 16.4541 6.84155 16.6059 6.84155 16.7932V17.2002C6.84155 17.3875 6.99333 17.5393 7.18066 17.5393C7.36784 17.5393 7.51969 17.3875 7.51969 17.2002V16.7932C7.51969 16.6059 7.36784 16.4541 7.18066 16.4541Z" fill="url(#paint2_linear_3356_2347)"/>
<path d="M11.1365 17.5393C11.3237 17.5393 11.4755 17.3875 11.4755 17.2002V16.7932C11.4755 16.606 11.3237 16.4541 11.1365 16.4541C10.9492 16.4541 10.7974 16.6059 10.7974 16.7932V17.2002C10.7974 17.3875 10.9492 17.5393 11.1365 17.5393Z" fill="url(#paint3_linear_3356_2347)"/>
<path d="M27.0837 19.0626L26.4462 18.7578C26.325 19.0113 26.0654 19.1751 25.785 19.1751C25.5041 19.1751 25.2446 19.0114 25.1238 18.7581L24.4861 19.0624C24.7236 19.5601 25.2334 19.8818 25.7851 19.8818C26.336 19.8817 26.8458 19.5602 27.0837 19.0626Z" fill="url(#paint4_linear_3356_2347)"/>
<path d="M23.7344 15.3252C23.5424 15.3252 23.3867 15.4809 23.3867 15.6729V16.0902C23.3867 16.2822 23.5424 16.4378 23.7344 16.4378C23.9264 16.4378 24.082 16.2822 24.082 16.0902V15.6729C24.082 15.4809 23.9264 15.3252 23.7344 15.3252Z" fill="url(#paint5_linear_3356_2347)"/>
<path d="M27.7904 16.4378C27.9824 16.4378 28.138 16.2822 28.138 16.0902V15.6729C28.138 15.4809 27.9824 15.3252 27.7904 15.3252C27.5983 15.3252 27.4426 15.4809 27.4426 15.6729V16.0902C27.4426 16.2822 27.5983 16.4378 27.7904 16.4378Z" fill="url(#paint6_linear_3356_2347)"/>
<path d="M19.5451 0.0116033C18.8673 -0.0550308 18.1913 0.167554 17.6901 0.62198C17.5188 0.777224 17.3726 0.955009 17.2541 1.14891C17.1357 0.955009 16.9894 0.777224 16.8182 0.621909C16.3171 0.167554 15.6409 -0.0549601 14.9632 0.0116033C13.8904 0.116889 13.0161 0.930278 12.8371 1.98957C12.8172 2.10757 12.8057 2.22819 12.803 2.34811C12.7912 2.87892 12.9774 3.41277 13.3272 3.8513L13.7907 4.43242L16.5656 7.44805C16.7357 7.65474 16.9858 7.77303 17.2542 7.77303C17.5226 7.77303 17.7728 7.65474 17.9429 7.44805L20.7014 4.45143L21.1812 3.85137C21.531 3.41277 21.7171 2.87892 21.7053 2.34811C21.7027 2.22862 21.6912 2.108 21.6713 1.98957C21.4922 0.930278 20.6179 0.11696 19.5451 0.0116033ZM20.6287 3.41079L20.173 3.98209L17.4156 6.97759L17.3994 6.9966C17.3508 7.05736 17.2876 7.06648 17.2542 7.06648C17.2209 7.06648 17.1577 7.05744 17.1092 6.99667L14.3353 3.98216L13.8796 3.41086C13.6329 3.10143 13.5014 2.72961 13.5095 2.36408C13.5114 2.27829 13.5197 2.19194 13.534 2.1075C13.6599 1.36181 14.2761 0.789237 15.0323 0.714971C15.519 0.667062 15.9848 0.820116 16.3437 1.14558C16.6979 1.46667 16.901 1.92477 16.901 2.40245V2.88846H17.6076V2.40245C17.6076 1.92477 17.8107 1.46667 18.1648 1.14558C18.5238 0.820186 18.9896 0.667133 19.4763 0.714971C20.2325 0.789166 20.8486 1.36181 20.9746 2.10743C20.9889 2.19223 20.9971 2.27851 20.9991 2.36401C21.0071 2.72954 20.8756 3.10129 20.6287 3.41079Z" fill="url(#paint7_linear_3356_2347)"/>
<defs>
<linearGradient id="paint0_linear_3356_2347" x1="1" y1="-0.61831" x2="28.0589" y2="38.9468" gradientUnits="userSpaceOnUse">
<stop stop-color="#8225AF"/>
<stop offset="1" stop-color="#0F52BA"/>
</linearGradient>
<linearGradient id="paint1_linear_3356_2347" x1="7.97881" y1="19.5736" x2="8.77169" y2="21.6447" gradientUnits="userSpaceOnUse">
<stop stop-color="#8225AF"/>
<stop offset="1" stop-color="#0F52BA"/>
</linearGradient>
<linearGradient id="paint2_linear_3356_2347" x1="6.86098" y1="16.2337" x2="7.95815" y2="17.0124" gradientUnits="userSpaceOnUse">
<stop stop-color="#8225AF"/>
<stop offset="1" stop-color="#0F52BA"/>
</linearGradient>
<linearGradient id="paint3_linear_3356_2347" x1="10.8168" y1="16.2337" x2="11.914" y2="17.0124" gradientUnits="userSpaceOnUse">
<stop stop-color="#8225AF"/>
<stop offset="1" stop-color="#0F52BA"/>
</linearGradient>
<linearGradient id="paint4_linear_3356_2347" x1="24.5605" y1="18.5295" x2="25.3614" y2="20.6319" gradientUnits="userSpaceOnUse">
<stop stop-color="#8225AF"/>
<stop offset="1" stop-color="#0F52BA"/>
</linearGradient>
<linearGradient id="paint5_linear_3356_2347" x1="23.4066" y1="15.0992" x2="24.5315" y2="15.8977" gradientUnits="userSpaceOnUse">
<stop stop-color="#8225AF"/>
<stop offset="1" stop-color="#0F52BA"/>
</linearGradient>
<linearGradient id="paint6_linear_3356_2347" x1="27.4626" y1="15.0992" x2="28.5875" y2="15.8978" gradientUnits="userSpaceOnUse">
<stop stop-color="#8225AF"/>
<stop offset="1" stop-color="#0F52BA"/>
</linearGradient>
<linearGradient id="paint7_linear_3356_2347" x1="13.0576" y1="-1.57891" x2="21.1021" y2="8.88764" gradientUnits="userSpaceOnUse">
<stop stop-color="#8225AF"/>
<stop offset="1" stop-color="#0F52BA"/>
</linearGradient>
</defs>
</svg>
