<svg width="16" height="16" viewBox="0 0 16 16" fill="none" xmlns="http://www.w3.org/2000/svg">
<path d="M8.04736 12.5977C8.21502 12.5977 8.35632 12.5398 8.47126 12.4239C8.58621 12.3082 8.64368 12.1664 8.64368 11.9986C8.64368 11.831 8.58575 11.6897 8.46988 11.5747C8.35418 11.4598 8.21241 11.4023 8.0446 11.4023C7.87694 11.4023 7.73563 11.4602 7.62069 11.5761C7.50575 11.6918 7.44828 11.8336 7.44828 12.0014C7.44828 12.169 7.50621 12.3103 7.62207 12.4253C7.73778 12.5402 7.87954 12.5977 8.04736 12.5977ZM7.67816 9.70115H8.32184C8.35249 9.33333 8.43295 9.03065 8.56322 8.7931C8.69349 8.55556 8.93487 8.26054 9.28736 7.90805C9.70115 7.49425 10.0038 7.13027 10.1954 6.81609C10.387 6.50192 10.4828 6.14306 10.4828 5.73954C10.4828 5.05494 10.246 4.50192 9.77241 4.08046C9.29885 3.659 8.7387 3.44828 8.09195 3.44828C7.49425 3.44828 6.97701 3.61303 6.54023 3.94253C6.10345 4.27203 5.77778 4.64368 5.56322 5.05747L6.2069 5.33333C6.37548 4.98084 6.5977 4.68582 6.87356 4.44828C7.14943 4.21073 7.54023 4.09195 8.04598 4.09195C8.67433 4.09195 9.13027 4.26437 9.41379 4.6092C9.69732 4.95402 9.83908 5.33333 9.83908 5.74713C9.83908 6.06897 9.75479 6.35249 9.58621 6.5977C9.41762 6.84291 9.1954 7.09579 8.91954 7.35632C8.42912 7.81609 8.09962 8.22222 7.93103 8.57471C7.76245 8.9272 7.67816 9.30268 7.67816 9.70115ZM8.00391 16C6.89785 16 5.85778 15.7901 4.88368 15.3703C3.90958 14.9506 3.0623 14.3808 2.34184 13.6611C1.62123 12.9415 1.0508 12.0952 0.630575 11.1225C0.210191 10.1497 0 9.11012 0 8.00391C0 6.89785 0.209885 5.85778 0.629655 4.88368C1.04943 3.90958 1.61916 3.0623 2.33885 2.34184C3.05854 1.62123 3.90475 1.0508 4.87747 0.630575C5.85035 0.210191 6.88988 0 7.99609 0C9.10215 0 10.1422 0.209885 11.1163 0.629655C12.0904 1.04943 12.9377 1.61916 13.6582 2.33885C14.3788 3.05854 14.9492 3.90475 15.3694 4.87747C15.7898 5.85034 16 6.88988 16 7.99609C16 9.10215 15.7901 10.1422 15.3703 11.1163C14.9506 12.0904 14.3808 12.9377 13.6611 13.6582C12.9415 14.3788 12.0952 14.9492 11.1225 15.3694C10.1497 15.7898 9.11012 16 8.00391 16ZM8 15.3563C10.0536 15.3563 11.7931 14.6437 13.2184 13.2184C14.6437 11.7931 15.3563 10.0536 15.3563 8C15.3563 5.94636 14.6437 4.2069 13.2184 2.78161C11.7931 1.35632 10.0536 0.643678 8 0.643678C5.94636 0.643678 4.2069 1.35632 2.78161 2.78161C1.35632 4.2069 0.643678 5.94636 0.643678 8C0.643678 10.0536 1.35632 11.7931 2.78161 13.2184C4.2069 14.6437 5.94636 15.3563 8 15.3563Z" fill="black"/>
</svg>
