<svg width="24" height="24" viewBox="0 0 24 24" fill="none" xmlns="http://www.w3.org/2000/svg">
<path d="M12 19.6538L11.2423 18.9693C9.61025 17.4783 8.26025 16.202 7.19225 15.1405C6.12442 14.0789 5.2815 13.1426 4.6635 12.3318C4.0455 11.5209 3.61375 10.7873 3.36825 10.1308C3.12275 9.47444 3 8.81419 3 8.15002C3 6.87819 3.43208 5.81027 4.29625 4.94627C5.16025 4.08211 6.22817 3.65002 7.5 3.65002C8.3795 3.65002 9.2045 3.87502 9.975 4.32502C10.7455 4.77502 11.4205 5.42952 12 6.28852C12.5795 5.42952 13.2545 4.77502 14.025 4.32502C14.7955 3.87502 15.6205 3.65002 16.5 3.65002C17.7718 3.65002 18.8398 4.08211 19.7038 4.94627C20.5679 5.81027 21 6.87819 21 8.15002C21 8.81419 20.8773 9.47444 20.6318 10.1308C20.3863 10.7873 19.9545 11.5209 19.3365 12.3318C18.7185 13.1426 17.8787 14.0789 16.8173 15.1405C15.7558 16.202 14.4026 17.4783 12.7578 18.9693L12 19.6538ZM12 18.3C13.6 16.8539 14.9167 15.6151 15.95 14.5838C16.9833 13.5523 17.8 12.6574 18.4 11.899C19 11.1407 19.4167 10.4689 19.65 9.88377C19.8833 9.29844 20 8.72052 20 8.15002C20 7.15002 19.6667 6.31669 19 5.65002C18.3333 4.98336 17.5 4.65002 16.5 4.65002C15.7038 4.65002 14.9692 4.87727 14.2962 5.33178C13.6231 5.78628 13.0205 6.47052 12.4885 7.38452H11.5115C10.9667 6.45769 10.3609 5.77019 9.69425 5.32202C9.02758 4.87402 8.29617 4.65002 7.5 4.65002C6.51283 4.65002 5.68267 4.98336 5.0095 5.65002C4.3365 6.31669 4 7.15002 4 8.15002C4 8.72052 4.11667 9.29844 4.35 9.88377C4.58333 10.4689 5 11.1407 5.6 11.899C6.2 12.6574 7.01667 13.549 8.05 14.574C9.08333 15.599 10.4 16.841 12 18.3Z" fill="#1F1F1F"/>
</svg>
