<svg width="30" height="30" viewBox="0 0 30 30" fill="none" xmlns="http://www.w3.org/2000/svg">
<path d="M5.17241 24.6552C6.63793 23.6207 8.1681 22.8017 9.76293 22.1983C11.3578 21.5948 13.1034 21.2931 15 21.2931C16.8966 21.2931 18.6422 21.5948 20.2371 22.1983C21.8319 22.8017 23.3621 23.6207 24.8276 24.6552C26.0057 23.477 26.9612 22.069 27.694 20.431C28.4267 18.7931 28.7931 16.9828 28.7931 15C28.7931 11.1782 27.4497 7.92385 24.7629 5.23707C22.0761 2.55029 18.8218 1.2069 15 1.2069C11.1782 1.2069 7.92385 2.55029 5.23707 5.23707C2.55029 7.92385 1.2069 11.1782 1.2069 15C1.2069 16.9828 1.57328 18.7931 2.30603 20.431C3.03879 22.069 3.99425 23.477 5.17241 24.6552ZM15.0013 15.6034C13.6211 15.6034 12.4569 15.1297 11.5086 14.1823C10.5603 13.2349 10.0862 12.0711 10.0862 10.6909C10.0862 9.31078 10.5599 8.14655 11.5073 7.19828C12.4547 6.25 13.6185 5.77586 14.9987 5.77586C16.3789 5.77586 17.5431 6.24957 18.4914 7.19698C19.4397 8.1444 19.9138 9.30819 19.9138 10.6884C19.9138 12.0685 19.4401 13.2328 18.4927 14.181C17.5453 15.1293 16.3815 15.6034 15.0013 15.6034ZM15 30C12.9023 30 10.9411 29.6121 9.11638 28.8362C7.29167 28.0603 5.70402 26.9971 4.35345 25.6466C3.00287 24.296 1.93966 22.7083 1.16379 20.8836C0.387931 19.0589 0 17.0977 0 15C0 12.9023 0.387931 10.9411 1.16379 9.11638C1.93966 7.29167 3.00287 5.70402 4.35345 4.35345C5.70402 3.00287 7.29167 1.93966 9.11638 1.16379C10.9411 0.387931 12.9023 0 15 0C17.0977 0 19.0589 0.387931 20.8836 1.16379C22.7083 1.93966 24.296 3.00287 25.6466 4.35345C26.9971 5.70402 28.0603 7.29167 28.8362 9.11638C29.6121 10.9411 30 12.9023 30 15C30 17.0977 29.6121 19.0589 28.8362 20.8836C28.0603 22.7083 26.9971 24.296 25.6466 25.6466C24.296 26.9971 22.7083 28.0603 20.8836 28.8362C19.0589 29.6121 17.0977 30 15 30ZM15 28.7931C16.6092 28.7931 18.2112 28.4986 19.806 27.9095C21.4009 27.3204 22.7586 26.523 23.8793 25.5172C22.7586 24.5977 21.444 23.8649 19.9353 23.319C18.4267 22.773 16.7816 22.5 15 22.5C13.2184 22.5 11.5661 22.7658 10.0431 23.2974C8.52011 23.829 7.21264 24.569 6.12069 25.5172C7.24138 26.523 8.59914 27.3204 10.194 27.9095C11.7888 28.4986 13.3908 28.7931 15 28.7931ZM15 14.3966C16.0345 14.3966 16.9109 14.0374 17.6293 13.319C18.3477 12.6006 18.7069 11.7241 18.7069 10.6897C18.7069 9.65517 18.3477 8.77874 17.6293 8.06034C16.9109 7.34195 16.0345 6.98276 15 6.98276C13.9655 6.98276 13.0891 7.34195 12.3707 8.06034C11.6523 8.77874 11.2931 9.65517 11.2931 10.6897C11.2931 11.7241 11.6523 12.6006 12.3707 13.319C13.0891 14.0374 13.9655 14.3966 15 14.3966Z" fill="black"/>
</svg>
