<svg width="145" height="24" viewBox="0 0 145 24" fill="none" xmlns="http://www.w3.org/2000/svg">
<path d="M144.682 6.77539L139.417 22.4489H132.886L127.621 6.77539H133.539L136.07 17.1427H136.233L138.764 6.77539H144.682Z" fill="#731EE2"/>
<path d="M116.67 22.4491V6.77561H122.139V9.75521H122.303C122.588 8.65317 123.041 7.84704 123.66 7.33684C124.286 6.82664 125.017 6.57153 125.854 6.57153C126.098 6.57153 126.34 6.59194 126.578 6.63276C126.823 6.66677 127.058 6.71779 127.282 6.78582V11.5919C127.003 11.4967 126.66 11.4253 126.252 11.3777C125.843 11.33 125.493 11.3062 125.201 11.3062C124.65 11.3062 124.153 11.4321 123.711 11.6838C123.275 11.9287 122.932 12.2756 122.68 12.7246C122.428 13.1668 122.303 13.6872 122.303 14.2858V22.4491H116.67Z" fill="#731EE2"/>
<path d="M107.414 22.7348C105.74 22.7348 104.298 22.4151 103.087 21.7756C101.883 21.1294 100.954 20.2042 100.301 19.0001C99.6552 17.7892 99.332 16.3402 99.332 14.6532C99.332 13.0341 99.6586 11.6192 100.312 10.4083C100.965 9.19738 101.886 8.25521 103.077 7.58174C104.267 6.90827 105.672 6.57153 107.291 6.57153C108.475 6.57153 109.546 6.75521 110.505 7.12255C111.465 7.4899 112.284 8.02391 112.965 8.7246C113.645 9.41847 114.169 10.262 114.536 11.2552C114.903 12.2484 115.087 13.3675 115.087 14.6124V15.9185H101.087V12.8164H109.903C109.897 12.3675 109.781 11.9729 109.557 11.6328C109.339 11.2858 109.043 11.0171 108.669 10.8266C108.301 10.6294 107.883 10.5307 107.414 10.5307C106.958 10.5307 106.54 10.6294 106.159 10.8266C105.778 11.0171 105.471 11.2824 105.24 11.6226C105.016 11.9627 104.897 12.3607 104.883 12.8164V16.1634C104.883 16.6668 104.988 17.1158 105.199 17.5103C105.41 17.9049 105.713 18.2144 106.108 18.4389C106.502 18.6634 106.978 18.7756 107.536 18.7756C107.924 18.7756 108.278 18.7212 108.597 18.6124C108.924 18.5035 109.203 18.347 109.434 18.143C109.665 17.9321 109.835 17.6804 109.944 17.3879H115.087C114.91 18.4763 114.492 19.4219 113.832 20.2246C113.172 21.0205 112.298 21.6396 111.21 22.0817C110.128 22.5171 108.863 22.7348 107.414 22.7348Z" fill="#731EE2"/>
<path d="M92.669 8.08171C92.6145 7.40144 92.3595 6.87082 91.9037 6.48987C91.4547 6.10892 90.771 5.91844 89.8526 5.91844C89.2676 5.91844 88.788 5.98987 88.4139 6.13273C88.0465 6.26878 87.7744 6.45586 87.5975 6.69395C87.4207 6.93205 87.3288 7.20416 87.322 7.51028C87.3084 7.76198 87.3526 7.98987 87.4547 8.19395C87.5635 8.39123 87.7336 8.5715 87.9649 8.73477C88.1962 8.89123 88.4921 9.03409 88.8526 9.16334C89.2132 9.29259 89.6418 9.40824 90.1384 9.51028L91.8526 9.87763C93.0091 10.1225 93.9989 10.4457 94.822 10.847C95.6452 11.2484 96.3186 11.7212 96.8424 12.2654C97.3663 12.8028 97.7506 13.4082 97.9955 14.0817C98.2472 14.7552 98.3765 15.4899 98.3833 16.2858C98.3765 17.6599 98.0329 18.8232 97.3526 19.7756C96.6724 20.728 95.6996 21.4525 94.4343 21.9491C93.1758 22.4457 91.6622 22.694 89.8935 22.694C88.0771 22.694 86.4921 22.4252 85.1384 21.8878C83.7914 21.3504 82.7438 20.5239 81.9955 19.4082C81.254 18.2858 80.8798 16.8504 80.873 15.1021H86.2608C86.2948 15.7416 86.4547 16.279 86.7404 16.7144C87.0261 17.1497 87.4275 17.4797 87.9445 17.7042C88.4683 17.9286 89.0907 18.0409 89.8118 18.0409C90.4173 18.0409 90.9241 17.9661 91.3322 17.8164C91.7404 17.6667 92.0499 17.4593 92.2608 17.194C92.4717 16.9286 92.5805 16.6259 92.5873 16.2858C92.5805 15.9661 92.4751 15.6872 92.271 15.4491C92.0737 15.2042 91.7472 14.9865 91.2914 14.796C90.8356 14.5987 90.22 14.415 89.4445 14.245L87.3628 13.796C85.5125 13.3946 84.0533 12.7246 82.9853 11.7858C81.9241 10.8402 81.3969 9.5511 81.4037 7.91844C81.3969 6.59191 81.7506 5.43205 82.4649 4.43885C83.186 3.43885 84.1826 2.65994 85.4547 2.10212C86.7336 1.54429 88.1996 1.26538 89.8526 1.26538C91.5397 1.26538 92.9989 1.54769 94.2302 2.11232C95.4615 2.67695 96.4105 3.47286 97.0771 4.50008C97.7506 5.52048 98.0907 6.71436 98.0975 8.08171H92.669Z" fill="#731EE2"/>
<path d="M69.8386 18.7347L69.8794 12.0408H70.6141L74.41 6.77552H80.7365L74.3692 14.9796H72.7773L69.8386 18.7347ZM64.7773 22.449V1.55103H70.41V22.449H64.7773ZM74.4508 22.449L70.859 16.2449L74.5324 12.2449L80.8998 22.449H74.4508Z" fill="#731EE2"/>
<path d="M55.6205 22.7348C53.9198 22.7348 52.464 22.3981 51.2531 21.7246C50.0423 21.0443 49.1137 20.0987 48.4674 18.8879C47.8212 17.6702 47.498 16.2586 47.498 14.6532C47.498 13.0477 47.8212 11.6396 48.4674 10.4287C49.1137 9.21099 50.0423 8.26541 51.2531 7.59194C52.464 6.91167 53.9198 6.57153 55.6205 6.57153C57.1579 6.57153 58.4878 6.85045 59.6103 7.40827C60.7395 7.95929 61.6137 8.7416 62.2327 9.75521C62.8518 10.762 63.1647 11.9457 63.1715 13.3062H57.947C57.8722 12.4831 57.6341 11.8572 57.2327 11.4287C56.8382 10.9933 56.328 10.7756 55.7021 10.7756C55.2123 10.7756 54.7838 10.9185 54.4164 11.2042C54.0491 11.4831 53.7634 11.9083 53.5593 12.4797C53.3552 13.0443 53.2532 13.7552 53.2532 14.6124C53.2532 15.4695 53.3552 16.1838 53.5593 16.7552C53.7634 17.3198 54.0491 17.745 54.4164 18.0307C54.7838 18.3096 55.2123 18.4491 55.7021 18.4491C56.1171 18.4491 56.4844 18.3538 56.8042 18.1634C57.1239 17.9661 57.3824 17.6804 57.5797 17.3062C57.7838 16.9253 57.9062 16.4627 57.947 15.9185H63.1715C63.1511 17.2994 62.8348 18.5035 62.2225 19.5307C61.6103 20.5511 60.7429 21.3402 59.6205 21.8981C58.5048 22.4559 57.1715 22.7348 55.6205 22.7348Z" fill="#731EE2"/>
<path d="M40.2871 22.449V6.77551H45.9198V22.449H40.2871ZM43.1034 5.14286C42.3415 5.14286 41.6885 4.89116 41.1443 4.38776C40.6 3.88435 40.3279 3.27891 40.3279 2.57143C40.3279 1.86395 40.6 1.2585 41.1443 0.755101C41.6885 0.2517 42.3415 0 43.1034 0C43.8721 0 44.5252 0.2517 45.0626 0.755101C45.6068 1.2585 45.8789 1.86395 45.8789 2.57143C45.8789 3.27891 45.6068 3.88435 45.0626 4.38776C44.5252 4.89116 43.8721 5.14286 43.1034 5.14286Z" fill="#731EE2"/>
<path d="M32.507 15.5917V6.77539H38.1397V22.4489H32.7927V19.4693H32.6295C32.2893 20.4693 31.6941 21.2516 30.8438 21.8162C29.9934 22.374 28.9832 22.6529 27.8131 22.6529C26.7179 22.6529 25.7587 22.4012 24.9356 21.8978C24.1193 21.3944 23.4832 20.7006 23.0274 19.8162C22.5784 18.9319 22.3506 17.9183 22.3438 16.7754V6.77539H27.9764V15.5917C27.9832 16.3672 28.1805 16.9761 28.5682 17.4183C28.9628 17.8604 29.5138 18.0815 30.2213 18.0815C30.6907 18.0815 31.0955 17.9829 31.4356 17.7856C31.7825 17.5815 32.0478 17.2958 32.2315 16.9285C32.422 16.5543 32.5138 16.1087 32.507 15.5917Z" fill="#731EE2"/>
<path d="M8.16327 14.694H12.5714L14.1633 16.694L16.8571 19.7552L20.3673 24.0001H15.3469L12.8571 21.1021L11.1837 18.694L8.16327 14.694ZM20.3265 12.0001C20.3265 14.3266 19.8742 16.2892 18.9694 17.8878C18.0646 19.4797 16.8435 20.6872 15.3061 21.5103C13.7687 22.3266 12.0544 22.7348 10.1633 22.7348C8.25851 22.7348 6.53742 22.3232 5 21.5001C3.46939 20.6701 2.2517 19.4593 1.34694 17.8674C0.44898 16.2688 0 14.313 0 12.0001C0 9.67355 0.44898 7.71436 1.34694 6.12252C2.2517 4.52388 3.46939 3.3164 5 2.50008C6.53742 1.67695 8.25851 1.26538 10.1633 1.26538C12.0544 1.26538 13.7687 1.67695 15.3061 2.50008C16.8435 3.3164 18.0646 4.52388 18.9694 6.12252C19.8742 7.71436 20.3265 9.67355 20.3265 12.0001ZM14.4898 12.0001C14.4898 10.7484 14.3231 9.69395 13.9898 8.83681C13.6633 7.97286 13.1769 7.3198 12.5306 6.87763C11.8912 6.42865 11.102 6.20416 10.1633 6.20416C9.22449 6.20416 8.43197 6.42865 7.78572 6.87763C7.14626 7.3198 6.65986 7.97286 6.32653 8.83681C6 9.69395 5.83674 10.7484 5.83674 12.0001C5.83674 13.2518 6 14.3096 6.32653 15.1735C6.65986 16.0307 7.14626 16.6838 7.78572 17.1327C8.43197 17.5749 9.22449 17.796 10.1633 17.796C11.102 17.796 11.8912 17.5749 12.5306 17.1327C13.1769 16.6838 13.6633 16.0307 13.9898 15.1735C14.3231 14.3096 14.4898 13.2518 14.4898 12.0001Z" fill="#731EE2"/>
</svg>
