<svg width="13" height="16" viewBox="0 0 13 16" fill="none" xmlns="http://www.w3.org/2000/svg">
<path d="M1.37931 16C0.980843 16 0.651341 15.8697 0.390805 15.6092C0.130268 15.3487 0 15.0192 0 14.6207V5.05747C0 4.659 0.130268 4.3295 0.390805 4.06897C0.651341 3.80843 0.980843 3.67816 1.37931 3.67816H3.08046V3.08046C3.08046 2.22222 3.37931 1.49425 3.97701 0.896552C4.57471 0.298851 5.30268 0 6.16092 0C7.01916 0 7.74713 0.298851 8.34483 0.896552C8.94253 1.49425 9.24138 2.22222 9.24138 3.08046V3.67816H10.9425C11.341 3.67816 11.6705 3.80843 11.931 4.06897C12.1916 4.3295 12.3218 4.659 12.3218 5.05747V14.6207C12.3218 15.0192 12.1916 15.3487 11.931 15.6092C11.6705 15.8697 11.341 16 10.9425 16H1.37931ZM1.37931 15.3563H10.9425C11.1264 15.3563 11.295 15.2797 11.4483 15.1264C11.6015 14.9732 11.6782 14.8046 11.6782 14.6207V5.05747C11.6782 4.87356 11.6015 4.70498 11.4483 4.55172C11.295 4.39847 11.1264 4.32184 10.9425 4.32184H9.24138V6.75862C9.24138 6.85057 9.21073 6.9272 9.14943 6.98851C9.08812 7.04981 9.01149 7.08046 8.91954 7.08046C8.82759 7.08046 8.75096 7.04981 8.68966 6.98851C8.62835 6.9272 8.5977 6.85057 8.5977 6.75862V4.32184H3.72414V6.75862C3.72414 6.85057 3.69349 6.9272 3.63218 6.98851C3.57088 7.04981 3.49425 7.08046 3.4023 7.08046C3.31035 7.08046 3.23372 7.04981 3.17241 6.98851C3.11111 6.9272 3.08046 6.85057 3.08046 6.75862V4.32184H1.37931C1.1954 4.32184 1.02682 4.39847 0.873563 4.55172C0.720307 4.70498 0.643678 4.87356 0.643678 5.05747V14.6207C0.643678 14.8046 0.720307 14.9732 0.873563 15.1264C1.02682 15.2797 1.1954 15.3563 1.37931 15.3563ZM3.72414 3.67816H8.5977V3.08046C8.5977 2.3908 8.36399 1.81226 7.89655 1.34483C7.42912 0.877395 6.85058 0.643678 6.16092 0.643678C5.47126 0.643678 4.89272 0.877395 4.42529 1.34483C3.95785 1.81226 3.72414 2.3908 3.72414 3.08046V3.67816Z" fill="black"/>
</svg>
