<svg width="55" height="55" viewBox="0 0 55 55" fill="none" xmlns="http://www.w3.org/2000/svg">
<circle cx="27.5" cy="27.5" r="27" stroke="url(#paint0_linear_3453_12)"/>
<path d="M28 39.0047L27.0528 38.1491C25.0128 36.2853 23.3253 34.69 21.9903 33.3631C20.6555 32.036 19.6019 30.8657 18.8294 29.8522C18.0569 28.8386 17.5172 27.9216 17.2103 27.1009C16.9034 26.2805 16.75 25.4552 16.75 24.625C16.75 23.0352 17.2901 21.7003 18.3703 20.6203C19.4503 19.5401 20.7852 19 22.375 19C23.4744 19 24.5056 19.2813 25.4688 19.8438C26.4319 20.4063 27.2756 21.2244 28 22.2981C28.7244 21.2244 29.5681 20.4063 30.5312 19.8438C31.4944 19.2813 32.5256 19 33.625 19C35.2148 19 36.5497 19.5401 37.6297 20.6203C38.7099 21.7003 39.25 23.0352 39.25 24.625C39.25 25.4552 39.0966 26.2805 38.7897 27.1009C38.4828 27.9216 37.9431 28.8386 37.1706 29.8522C36.3981 30.8657 35.3484 32.036 34.0216 33.3631C32.6947 34.69 31.0032 36.2853 28.9472 38.1491L28 39.0047ZM28 37.3125C30 35.5048 31.6458 33.9564 32.9375 32.6672C34.2292 31.3778 35.25 30.2592 36 29.3113C36.75 28.3633 37.2708 27.5236 37.5625 26.7922C37.8542 26.0605 38 25.3381 38 24.625C38 23.375 37.5833 22.3333 36.75 21.5C35.9167 20.6667 34.875 20.25 33.625 20.25C32.6298 20.25 31.7116 20.5341 30.8703 21.1022C30.0289 21.6703 29.2756 22.5256 28.6106 23.6681H27.3894C26.7083 22.5096 25.9511 21.6502 25.1178 21.09C24.2845 20.53 23.3702 20.25 22.375 20.25C21.141 20.25 20.1033 20.6667 19.2619 21.5C18.4206 22.3333 18 23.375 18 24.625C18 25.3381 18.1458 26.0605 18.4375 26.7922C18.7292 27.5236 19.25 28.3633 20 29.3113C20.75 30.2592 21.7708 31.3738 23.0625 32.655C24.3542 33.9363 26 35.4888 28 37.3125Z" fill="#1F1F1F"/>
<defs>
<linearGradient id="paint0_linear_3453_12" x1="27.5" y1="0" x2="27.5" y2="55" gradientUnits="userSpaceOnUse">
<stop stop-color="#8225AF"/>
<stop offset="1" stop-color="#0F52BA"/>
</linearGradient>
</defs>
</svg>
