<svg width="13" height="13" viewBox="0 0 13 13" fill="none" xmlns="http://www.w3.org/2000/svg">
<path d="M12.6105 13L8.91014 9.1963C8.42966 9.63087 7.86932 9.96018 7.22912 10.1842C6.58892 10.4083 5.95637 10.5204 5.33148 10.5204C3.84139 10.5204 2.58029 10.0121 1.54817 8.99559C0.516058 7.97905 0 6.73523 0 5.26411C0 3.79298 0.513973 2.54784 1.54192 1.5287C2.56988 0.509568 3.82584 0 5.30981 0C6.79378 0 8.05696 0.508645 9.09935 1.52594C10.1418 2.54321 10.663 3.78626 10.663 5.25508C10.663 5.90848 10.5412 6.55216 10.2978 7.18611C10.0543 7.82006 9.72163 8.36173 9.29966 8.81111L13 12.5907L12.6105 13ZM5.33148 9.99074C6.6799 9.99074 7.81632 9.53735 8.74076 8.63056C9.66517 7.72377 10.1274 6.60031 10.1274 5.26019C10.1274 3.92006 9.66517 2.79661 8.74076 1.88981C7.81632 0.983025 6.6799 0.52963 5.33148 0.52963C3.98306 0.52963 2.84664 0.983025 1.92221 1.88981C0.99779 2.79661 0.535582 3.92006 0.535582 5.26019C0.535582 6.60031 0.99779 7.72377 1.92221 8.63056C2.84664 9.53735 3.98306 9.99074 5.33148 9.99074Z" fill="black"/>
</svg>
