<svg width="12" height="15" viewBox="0 0 12 15" fill="none" xmlns="http://www.w3.org/2000/svg">
<path d="M0 15V1.52542C0 1.08475 0.144068 0.720339 0.432203 0.432203C0.720339 0.144068 1.08475 0 1.52542 0H10.0678C10.5085 0 10.8729 0.144068 11.161 0.432203C11.4492 0.720339 11.5932 1.08475 11.5932 1.52542V15L5.79661 12.5085L0 15ZM0.711864 13.8814L5.79661 11.6949L10.8814 13.8814V1.52542C10.8814 1.32203 10.7966 1.13559 10.6271 0.966102C10.4576 0.79661 10.2712 0.711864 10.0678 0.711864H1.52542C1.32203 0.711864 1.13559 0.79661 0.966102 0.966102C0.79661 1.13559 0.711864 1.32203 0.711864 1.52542V13.8814Z" fill="black"/>
</svg>
