<svg width="12" height="14" viewBox="0 0 12 14" fill="none" xmlns="http://www.w3.org/2000/svg">
<path d="M2.59538 8.35934C2.4805 8.24172 2.42306 8.10368 2.42306 7.94523C2.42306 7.78665 2.4805 7.64855 2.59538 7.53093C2.71038 7.41331 2.84525 7.3545 3 7.3545C3.15475 7.3545 3.28962 7.41331 3.40462 7.53093C3.5195 7.64855 3.57694 7.78665 3.57694 7.94523C3.57694 8.10368 3.5195 8.24172 3.40462 8.35934C3.28962 8.47696 3.15475 8.53577 3 8.53577C2.84525 8.53577 2.71038 8.47696 2.59538 8.35934ZM5.59538 8.35934C5.4805 8.24172 5.42306 8.10368 5.42306 7.94523C5.42306 7.78665 5.4805 7.64855 5.59538 7.53093C5.71038 7.41331 5.84525 7.3545 6 7.3545C6.15475 7.3545 6.28963 7.41331 6.40462 7.53093C6.5195 7.64855 6.57694 7.78665 6.57694 7.94523C6.57694 8.10368 6.5195 8.24172 6.40462 8.35934C6.28963 8.47696 6.15475 8.53577 6 8.53577C5.84525 8.53577 5.71038 8.47696 5.59538 8.35934ZM8.59538 8.35934C8.4805 8.24172 8.42306 8.10368 8.42306 7.94523C8.42306 7.78665 8.4805 7.64855 8.59538 7.53093C8.71037 7.41331 8.84525 7.3545 9 7.3545C9.15475 7.3545 9.28963 7.41331 9.40463 7.53093C9.5195 7.64855 9.57694 7.78665 9.57694 7.94523C9.57694 8.10368 9.5195 8.24172 9.40463 8.35934C9.28963 8.47696 9.15475 8.53577 9 8.53577C8.84525 8.53577 8.71037 8.47696 8.59538 8.35934ZM1.21162 14C0.866375 14 0.578125 13.8816 0.346875 13.6448C0.115625 13.4081 0 13.1129 0 12.7594V2.95366C0 2.60016 0.115625 2.30502 0.346875 2.06824C0.578125 1.83146 0.866375 1.71307 1.21162 1.71307H2.53838V0H3.34612V1.71307H8.71163V0H9.46163V1.71307H10.7884C11.1336 1.71307 11.4219 1.83146 11.6531 2.06824C11.8844 2.30502 12 2.60016 12 2.95366V12.7594C12 13.1129 11.8844 13.4081 11.6531 13.6448C11.4219 13.8816 11.1336 14 10.7884 14H1.21162ZM1.21162 13.2321H10.7884C10.9039 13.2321 11.0097 13.1829 11.1058 13.0844C11.2019 12.986 11.25 12.8777 11.25 12.7594V6.0254H0.75V12.7594C0.75 12.8777 0.798063 12.986 0.894188 13.0844C0.990313 13.1829 1.09613 13.2321 1.21162 13.2321ZM0.75 5.25727H11.25V2.95366C11.25 2.8354 11.2019 2.72706 11.1058 2.62864C11.0097 2.53021 10.9039 2.481 10.7884 2.481H1.21162C1.09613 2.481 0.990313 2.53021 0.894188 2.62864C0.798063 2.72706 0.75 2.8354 0.75 2.95366V5.25727Z" fill="#1F1F1F"/>
</svg>
