<svg width="15" height="14" viewBox="0 0 15 14" fill="none" xmlns="http://www.w3.org/2000/svg">
<path d="M0.882353 11.375V13.125V0.875V11.375ZM1.42544 14C1.03059 14 0.694265 13.8623 0.416471 13.587C0.138824 13.3115 0 12.978 0 12.5864V1.41356C0 1.022 0.138824 0.688479 0.416471 0.413C0.694265 0.137667 1.03059 0 1.42544 0H12.6922C13.0871 0 13.4234 0.137667 13.7012 0.413C13.9788 0.688479 14.1176 1.022 14.1176 1.41356V3.98803H13.2353V1.41356C13.2353 1.2565 13.1844 1.12744 13.0826 1.02637C12.9807 0.925458 12.8506 0.875 12.6922 0.875H1.42544C1.26706 0.875 1.13691 0.925458 1.035 1.02637C0.933235 1.12744 0.882353 1.2565 0.882353 1.41356V12.5864C0.882353 12.7435 0.933235 12.8726 1.035 12.9736C1.13691 13.0745 1.26706 13.125 1.42544 13.125H12.6922C12.8506 13.125 12.9807 13.0745 13.0826 12.9736C13.1844 12.8726 13.2353 12.7435 13.2353 12.5864V10.012H14.1176V12.5864C14.1176 12.978 13.9788 13.3115 13.7012 13.587C13.4234 13.8623 13.0871 14 12.6922 14H1.42544ZM8.48426 10.5C8.08941 10.5 7.75309 10.3623 7.47529 10.087C7.19765 9.81152 7.05882 9.478 7.05882 9.08644V4.91356C7.05882 4.522 7.19765 4.18848 7.47529 3.913C7.75309 3.63767 8.08941 3.5 8.48426 3.5H13.5746C13.9694 3.5 14.3057 3.63767 14.5835 3.913C14.8612 4.18848 15 4.522 15 4.91356V9.08644C15 9.478 14.8612 9.81152 14.5835 10.087C14.3057 10.3623 13.9694 10.5 13.5746 10.5H8.48426ZM13.5746 9.625C13.7329 9.625 13.8631 9.57454 13.965 9.47362C14.0668 9.37256 14.1176 9.2435 14.1176 9.08644V4.91356C14.1176 4.7565 14.0668 4.62744 13.965 4.52637C13.8631 4.42546 13.7329 4.375 13.5746 4.375H8.48426C8.32588 4.375 8.19573 4.42546 8.09382 4.52637C7.99206 4.62744 7.94118 4.7565 7.94118 4.91356V9.08644C7.94118 9.2435 7.99206 9.37256 8.09382 9.47362C8.19573 9.57454 8.32588 9.625 8.48426 9.625H13.5746ZM11.5257 7.92969C11.7831 7.67448 11.9118 7.36458 11.9118 7C11.9118 6.63542 11.7831 6.32552 11.5257 6.07031C11.2684 5.8151 10.9559 5.6875 10.5882 5.6875C10.2206 5.6875 9.90809 5.8151 9.65074 6.07031C9.39338 6.32552 9.26471 6.63542 9.26471 7C9.26471 7.36458 9.39338 7.67448 9.65074 7.92969C9.90809 8.1849 10.2206 8.3125 10.5882 8.3125C10.9559 8.3125 11.2684 8.1849 11.5257 7.92969Z" fill="#1F1F1F"/>
</svg>
