<svg width="15" height="14" viewBox="0 0 15 14" fill="none" xmlns="http://www.w3.org/2000/svg">
<path d="M5.43104 8.7499L7.5 7.51546L9.56896 8.7499L9.01917 6.43392L10.8494 4.88897L8.44396 4.67931L7.5 2.50679L6.55604 4.67931L4.15063 4.88897L5.98083 6.43392L5.43104 8.7499ZM0 14V1.32441C0 0.947024 0.128472 0.631942 0.385417 0.379165C0.642361 0.126388 0.962639 0 1.34625 0H13.6538C14.0374 0 14.3576 0.126388 14.6146 0.379165C14.8715 0.631942 15 0.947024 15 1.32441V10.153C15 10.5304 14.8715 10.8455 14.6146 11.0983C14.3576 11.351 14.0374 11.4774 13.6538 11.4774H2.56417L0 14ZM2.20833 10.6576H13.6538C13.7821 10.6576 13.8997 10.6051 14.0065 10.5C14.1133 10.3949 14.1667 10.2793 14.1667 10.153V1.32441C14.1667 1.19816 14.1133 1.0825 14.0065 0.977426C13.8997 0.872353 13.7821 0.819816 13.6538 0.819816H1.34625C1.21792 0.819816 1.10035 0.872353 0.993542 0.977426C0.886736 1.0825 0.833333 1.19816 0.833333 1.32441V12.0056L2.20833 10.6576Z" fill="#1F1F1F"/>
</svg>
