<svg width="11" height="14" viewBox="0 0 11 14" fill="none" xmlns="http://www.w3.org/2000/svg">
<path d="M2.71773 11.188H8.17116V10.5897H2.71773V11.188ZM2.71773 7.98718H8.17116V7.38889H2.71773V7.98718ZM1.07691 14C0.778024 14 0.523814 13.8952 0.31428 13.6857C0.10476 13.4762 0 13.222 0 12.9231V1.07691C0 0.778024 0.10476 0.523814 0.31428 0.314281C0.523814 0.104761 0.778024 0 1.07691 0H7.57285L10.8889 3.31604V12.9231C10.8889 13.222 10.7841 13.4762 10.5746 13.6857C10.3651 13.8952 10.1109 14 9.81198 14H1.07691ZM7.27372 3.58676V0.598286H1.07691C0.957263 0.598286 0.847577 0.648142 0.747853 0.747853C0.648142 0.847577 0.598286 0.957262 0.598286 1.07691V12.9231C0.598286 13.0427 0.648142 13.1524 0.747853 13.2521C0.847577 13.3519 0.957263 13.4017 1.07691 13.4017H9.81198C9.93163 13.4017 10.0413 13.3519 10.141 13.2521C10.2407 13.1524 10.2906 13.0427 10.2906 12.9231V3.58676H7.27372Z" fill="black"/>
</svg>
