<svg width="15" height="14" viewBox="0 0 15 14" fill="none" xmlns="http://www.w3.org/2000/svg">
<path d="M14.0461 14L9.05697 9.14375L10.0109 8.21527L15 13.0715L14.0461 14ZM1.55866 14L0.604772 13.0715L6.85715 6.98568L4.18892 4.40535L3.69805 4.88315L2.84616 4.03689V5.61133L2.35528 6.08912L0 3.79635L0.490647 3.31878H2.10816L1.24414 2.4946L3.1901 0.600471C3.39738 0.398564 3.62429 0.248848 3.87081 0.15132C4.11748 0.0537928 4.38018 0.00502902 4.6589 0.00502902C4.93777 0.00502902 5.20047 0.0537928 5.44699 0.15132C5.69351 0.248848 5.92049 0.398564 6.12792 0.600471L4.64856 2.04042L5.63368 2.99908L5.14281 3.47688L7.81104 6.0572L10.1095 3.81997C9.96885 3.62594 9.8712 3.42746 9.81653 3.22453C9.76171 3.0216 9.73431 2.79899 9.73431 2.55671C9.73431 1.84238 9.98869 1.23768 10.4975 0.742607C11.0061 0.247535 11.6273 0 12.3612 0C12.5167 0 12.6667 0.0106412 12.8114 0.0319252C12.9559 0.0532092 13.0984 0.0963613 13.2389 0.16138L11.3779 1.97307L12.9608 3.51383L14.8221 1.70236C14.8923 1.8391 14.9375 1.97781 14.9575 2.11849C14.9778 2.25931 14.9879 2.40539 14.9879 2.55671C14.9879 3.27103 14.7336 3.87573 14.2249 4.3708C13.7163 4.86602 13.0951 5.11363 12.3612 5.11363C12.1123 5.11363 11.8836 5.08783 11.6751 5.03622C11.4666 4.98462 11.2627 4.88869 11.0634 4.74845L1.55866 14Z" fill="#1F1F1F"/>
</svg>
