<svg width="18" height="14" viewBox="0 0 18 14" fill="none" xmlns="http://www.w3.org/2000/svg">
<path d="M0 14V12.4433C0 11.9396 0.115569 11.5079 0.346707 11.1484C0.577861 10.7889 0.904678 10.5037 1.32716 10.2927C2.23163 9.84403 3.07247 9.4941 3.84967 9.24293C4.62688 8.99176 5.57257 8.86617 6.68671 8.86617C7.80086 8.86617 8.74256 8.99176 9.51181 9.24293C10.2811 9.4941 11.1241 9.84403 12.0408 10.2927C12.451 10.5037 12.7726 10.7889 13.0056 11.1484C13.2386 11.5079 13.3551 11.9396 13.3551 12.4433V14H0ZM15.0428 14V12.5054C15.0428 11.7201 14.9019 11.0506 14.62 10.4967C14.3381 9.9429 13.9728 9.48287 13.5238 9.11666C14.1194 9.24637 14.6942 9.40887 15.2483 9.60416C15.8023 9.79944 16.2899 10.0146 16.7111 10.2495C17.0885 10.4796 17.3977 10.7918 17.6386 11.1859C17.8795 11.5801 18 12.0199 18 12.5054V14H15.0428ZM6.68671 6.21027C5.8936 6.21027 5.23517 5.91477 4.71143 5.32376C4.18767 4.73274 3.92579 3.98976 3.92579 3.0948C3.92579 2.19983 4.18767 1.46029 4.71143 0.876172C5.23517 0.292058 5.8936 0 6.68671 0C7.47983 0 8.1352 0.292058 8.65282 0.876172C9.17045 1.46029 9.42927 2.19983 9.42927 3.0948C9.42927 3.98976 9.17045 4.73274 8.65282 5.32376C8.1352 5.91477 7.47983 6.21027 6.68671 6.21027ZM13.1716 3.0948C13.1716 3.98976 12.9128 4.73274 12.3952 5.32376C11.8776 5.91477 11.22 6.21027 10.4225 6.21027C10.3804 6.21027 10.3438 6.20716 10.3126 6.20096C10.2814 6.19475 10.2456 6.18337 10.2052 6.16681C10.5051 5.77676 10.7321 5.32165 10.886 4.80147C11.04 4.2813 11.117 3.715 11.117 3.10258C11.117 2.49015 11.0329 1.93657 10.8647 1.44181C10.6966 0.947064 10.4768 0.474058 10.2052 0.0227949C10.2334 0.0241584 10.2692 0.0207046 10.3126 0.0124339C10.356 0.00414528 10.3918 0 10.4199 0C11.2191 0 11.8776 0.292058 12.3952 0.876172C12.9128 1.46029 13.1716 2.19983 13.1716 3.0948ZM0.733789 13.1719H12.6213V12.4433C12.6213 12.1562 12.5519 11.8954 12.4131 11.6608C12.2743 11.4262 12.0446 11.2136 11.7242 11.0232C10.873 10.5457 10.0762 10.2048 9.33388 10.0006C8.59151 9.79633 7.70912 9.6942 6.68671 9.6942C5.66429 9.6942 4.78098 9.79633 4.03678 10.0006C3.2926 10.2048 2.49491 10.5457 1.6437 11.0232C1.32327 11.2136 1.09151 11.4262 0.948424 11.6608C0.805334 11.8954 0.733789 12.1562 0.733789 12.4433V13.1719ZM6.67753 5.38224C7.24867 5.38224 7.72777 5.16384 8.11485 4.72704C8.50194 4.29025 8.69548 3.74962 8.69548 3.10513C8.69548 2.46065 8.50194 1.92002 8.11485 1.48323C7.72777 1.04645 7.24867 0.828054 6.67753 0.828054C6.10639 0.828054 5.62729 1.04645 5.24022 1.48323C4.85314 1.92002 4.65961 2.46065 4.65961 3.10513C4.65961 3.74962 4.85314 4.29025 5.24022 4.72704C5.62729 5.16384 6.10639 5.38224 6.67753 5.38224Z" fill="black"/>
</svg>
