<svg width="16" height="18" viewBox="0 0 16 18" fill="none" xmlns="http://www.w3.org/2000/svg">
<path d="M1.35817 18C0.9889 18 0.670221 17.866 0.402133 17.5979C0.134044 17.3298 0 17.0111 0 16.6418V3.00606C0 2.63679 0.134044 2.31811 0.402133 2.05003C0.670221 1.78194 0.9889 1.64789 1.35817 1.64789H3.0966V0H4.28271V1.64789H11.7616V0H12.9205V1.64789H14.6499C15.0192 1.64789 15.3378 1.78194 15.6059 2.05003C15.874 2.31811 16.0081 2.63679 16.0081 3.00606V16.6418C16.0081 17.0111 15.874 17.3298 15.6059 17.5979C15.3378 17.866 15.0192 18 14.6499 18H1.35817ZM1.35817 16.9316H14.6499C14.7223 16.9316 14.7887 16.9014 14.8491 16.8411C14.9095 16.7807 14.9397 16.7143 14.9397 16.6418V7.28875H1.0684V16.6418C1.0684 16.7143 1.09858 16.7807 1.15894 16.8411C1.21931 16.9014 1.28572 16.9316 1.35817 16.9316ZM1.0684 6.22037H14.9397V3.00606C14.9397 2.93362 14.9095 2.86721 14.8491 2.80683C14.7887 2.74647 14.7223 2.71629 14.6499 2.71629H1.35817C1.28572 2.71629 1.21931 2.74647 1.15894 2.80683C1.09858 2.86721 1.0684 2.93362 1.0684 3.00606V6.22037ZM8.00403 11.0101C7.77345 11.0101 7.57697 10.9289 7.4146 10.7665C7.25223 10.6041 7.17104 10.4077 7.17104 10.1771C7.17104 9.9465 7.25223 9.75002 7.4146 9.58765C7.57697 9.42528 7.77345 9.34409 8.00403 9.34409C8.2346 9.34409 8.43108 9.42528 8.59345 9.58765C8.75583 9.75002 8.83701 9.9465 8.83701 10.1771C8.83701 10.4077 8.75583 10.6041 8.59345 10.7665C8.43108 10.9289 8.2346 11.0101 8.00403 11.0101ZM4.23741 11.0101C4.00683 11.0101 3.81036 10.9289 3.64799 10.7665C3.48561 10.6041 3.40443 10.4077 3.40443 10.1771C3.40443 9.9465 3.48561 9.75002 3.64799 9.58765C3.81036 9.42528 4.00683 9.34409 4.23741 9.34409C4.46799 9.34409 4.66447 9.42528 4.82684 9.58765C4.98921 9.75002 5.0704 9.9465 5.0704 10.1771C5.0704 10.4077 4.98921 10.6041 4.82684 10.7665C4.66447 10.9289 4.46799 11.0101 4.23741 11.0101ZM11.7706 11.0101C11.5401 11.0101 11.3436 10.9289 11.1812 10.7665C11.0188 10.6041 10.9377 10.4077 10.9377 10.1771C10.9377 9.9465 11.0188 9.75002 11.1812 9.58765C11.3436 9.42528 11.5401 9.34409 11.7706 9.34409C12.0012 9.34409 12.1977 9.42528 12.3601 9.58765C12.5224 9.75002 12.6036 9.9465 12.6036 10.1771C12.6036 10.4077 12.5224 10.6041 12.3601 10.7665C12.1977 10.9289 12.0012 11.0101 11.7706 11.0101ZM8.00403 14.7042C7.77345 14.7042 7.57697 14.6231 7.4146 14.4607C7.25223 14.2983 7.17104 14.1018 7.17104 13.8713C7.17104 13.6407 7.25223 13.4442 7.4146 13.2818C7.57697 13.1194 7.77345 13.0382 8.00403 13.0382C8.2346 13.0382 8.43108 13.1194 8.59345 13.2818C8.75583 13.4442 8.83701 13.6407 8.83701 13.8713C8.83701 14.1018 8.75583 14.2983 8.59345 14.4607C8.43108 14.6231 8.2346 14.7042 8.00403 14.7042ZM4.23741 14.7042C4.00683 14.7042 3.81036 14.6231 3.64799 14.4607C3.48561 14.2983 3.40443 14.1018 3.40443 13.8713C3.40443 13.6407 3.48561 13.4442 3.64799 13.2818C3.81036 13.1194 4.00683 13.0382 4.23741 13.0382C4.46799 13.0382 4.66447 13.1194 4.82684 13.2818C4.98921 13.4442 5.0704 13.6407 5.0704 13.8713C5.0704 14.1018 4.98921 14.2983 4.82684 14.4607C4.66447 14.6231 4.46799 14.7042 4.23741 14.7042ZM11.7706 14.7042C11.5401 14.7042 11.3436 14.6231 11.1812 14.4607C11.0188 14.2983 10.9377 14.1018 10.9377 13.8713C10.9377 13.6407 11.0188 13.4442 11.1812 13.2818C11.3436 13.1194 11.5401 13.0382 11.7706 13.0382C12.0012 13.0382 12.1977 13.1194 12.3601 13.2818C12.5224 13.4442 12.6036 13.6407 12.6036 13.8713C12.6036 14.1018 12.5224 14.2983 12.3601 14.4607C12.1977 14.6231 12.0012 14.7042 11.7706 14.7042Z" fill="#8225AF"/>
</svg>
