<svg width="13" height="14" viewBox="0 0 13 14" fill="none" xmlns="http://www.w3.org/2000/svg">
<path d="M6.09375 13.0642V7.22524L0.8125 4.26643V9.83322C0.8125 9.91393 0.833354 9.98954 0.875063 10.06C0.916635 10.1307 0.97913 10.1911 1.06255 10.2414L6.09375 13.0642ZM6.90625 13.0642L11.9375 10.2414C12.0209 10.1911 12.0834 10.1307 12.1249 10.06C12.1666 9.98954 12.1875 9.91393 12.1875 9.83322V4.26643L6.90625 7.22524V13.0642ZM6.5 6.54952L11.7203 3.63002L6.75005 0.846525C6.66663 0.79621 6.58328 0.771052 6.5 0.771052C6.41672 0.771052 6.33337 0.79621 6.24995 0.846525L1.27969 3.63002L6.5 6.54952ZM0.656297 10.937C0.451005 10.8232 0.290333 10.6684 0.174281 10.4728C0.0580938 10.2773 0 10.0656 0 9.83774V4.16226C0 3.9344 0.0580938 3.72272 0.174281 3.52722C0.290333 3.33159 0.451005 3.17685 0.656297 3.06298L5.8437 0.170799C6.04899 0.056933 6.26776 0 6.5 0C6.73224 0 6.951 0.056933 7.1563 0.170799L12.3437 3.06298C12.549 3.17685 12.7097 3.33159 12.8257 3.52722C12.9419 3.72272 13 3.9344 13 4.16226V9.83774C13 10.0656 12.9419 10.2773 12.8257 10.4728C12.7097 10.6684 12.549 10.8232 12.3437 10.937L7.1563 13.8292C6.951 13.9431 6.73224 14 6.5 14C6.26776 14 6.04899 13.9431 5.8437 13.8292L0.656297 10.937Z" fill="#1F1F1F"/>
</svg>
