<svg width="13" height="13" viewBox="0 0 13 13" fill="none" xmlns="http://www.w3.org/2000/svg">
<path d="M0.8125 12.1875H1.70469L10.3969 3.49531L9.50469 2.60313L0.8125 11.2953V12.1875ZM0 13V10.9531L10.7094 0.232802C10.7926 0.15858 10.8845 0.101224 10.9851 0.0607342C11.0857 0.0202446 11.1905 0 11.2996 0C11.4088 0 11.5145 0.0171849 11.6168 0.0515536C11.7192 0.0859359 11.8135 0.147916 11.9 0.237494L12.7672 1.10937C12.8568 1.19583 12.918 1.29068 12.9508 1.3939C12.9836 1.49713 13 1.60036 13 1.70359C13 1.8137 12.9814 1.91904 12.9443 2.01961C12.9072 2.12018 12.8482 2.21209 12.7672 2.29531L2.04687 13H0ZM9.94295 3.05705L9.50469 2.60313L10.3969 3.49531L9.94295 3.05705Z" fill="#0F52BA"/>
</svg>
