<svg width="11" height="14" viewBox="0 0 11 14" fill="none" xmlns="http://www.w3.org/2000/svg">
<path d="M5.47957 9.42215C6.49018 8.49585 7.13674 7.8533 7.41924 7.49452C7.70175 7.13574 7.843 6.77207 7.843 6.4035C7.843 6.0455 7.71482 5.73954 7.45845 5.48561C7.20209 5.23169 6.89321 5.10473 6.53182 5.10473C6.31405 5.10473 6.11435 5.14801 5.93273 5.23457C5.75111 5.32112 5.60005 5.4354 5.47957 5.57742C5.35612 5.4354 5.20057 5.32112 5.0129 5.23457C4.82523 5.14801 4.63003 5.10473 4.42731 5.10473C4.07003 5.10473 3.76218 5.23143 3.50375 5.48483C3.24534 5.73823 3.11613 6.04428 3.11613 6.40295C3.11613 6.59487 3.14229 6.76816 3.19461 6.92283C3.24694 7.07749 3.35658 7.26225 3.52354 7.47708C3.6905 7.69194 3.9289 7.94985 4.23876 8.25084C4.54861 8.55182 4.96222 8.94226 5.47957 9.42215ZM5.47957 14C3.90394 13.5233 2.59677 12.5586 1.55806 11.1059C0.519352 9.65322 0 8.02566 0 6.22322V2.0473L5.47957 0L10.9591 2.0473V6.22322C10.9591 8.02566 10.4398 9.65322 9.40108 11.1059C8.36236 12.5586 7.05519 13.5233 5.47957 14ZM5.47957 13.3587C6.89964 12.9031 8.06756 12.0096 8.98334 10.6784C9.89911 9.34714 10.357 7.86208 10.357 6.22322V2.46279L5.47957 0.635277L0.602146 2.46279V6.22322C0.602146 7.86208 1.06003 9.34714 1.97579 10.6784C2.89157 12.0096 4.0595 12.9031 5.47957 13.3587Z" fill="black"/>
</svg>
