<svg width="14" height="14" viewBox="0 0 14 14" fill="none" xmlns="http://www.w3.org/2000/svg">
<path d="M1.05525 14C0.762375 14 0.513278 13.8973 0.307959 13.692C0.102653 13.4867 0 13.2376 0 12.9447V2.86111C0 2.56824 0.102653 2.31914 0.307959 2.11382C0.513278 1.90852 0.762375 1.80586 1.05525 1.80586H7.6873L7.10103 2.39211H1.05525C0.938009 2.39211 0.830529 2.44097 0.732811 2.53867C0.635105 2.63639 0.586252 2.74387 0.586252 2.86111V12.9447C0.586252 13.062 0.635105 13.1695 0.732811 13.2672C0.830529 13.3649 0.938009 13.4137 1.05525 13.4137H11.1389C11.2561 13.4137 11.3636 13.3649 11.4613 13.2672C11.559 13.1695 11.6079 13.062 11.6079 12.9447V6.87112L12.1941 6.28486V12.9447C12.1941 13.2376 12.0915 13.4867 11.8862 13.692C11.6809 13.8973 11.4318 14 11.1389 14H1.05525ZM9.9605 1.87034L10.3841 2.28953L5.15905 7.49548V8.84095H6.48547L11.7442 3.61153L12.1487 4.0014L6.74195 9.4272H4.5728V7.25805L9.9605 1.87034ZM12.1548 4.0014L9.9605 1.87034L11.5434 0.287445C11.7398 0.0910559 11.9841 -0.00470034 12.2763 0.000177312C12.5685 0.00506767 12.8201 0.112066 13.031 0.32117L13.6935 0.973384C13.8997 1.19356 14.0027 1.44654 14.0027 1.7323C14.0027 2.01806 13.8933 2.26438 13.6744 2.47126L12.1548 4.0014Z" fill="black"/>
</svg>
