<svg width="18" height="14" viewBox="0 0 18 14" fill="none" xmlns="http://www.w3.org/2000/svg">
<path d="M1.3846 14C1.00032 14 0.673475 13.8653 0.404075 13.5959C0.134692 13.3265 0 12.9997 0 12.6154V1.3846C0 1.00032 0.134692 0.673476 0.404075 0.404076C0.673475 0.134692 1.00032 0 1.3846 0H16.6154C16.9997 0 17.3265 0.134692 17.5959 0.404076C17.8653 0.673476 18 1.00032 18 1.3846V12.6154C18 12.9997 17.8653 13.3265 17.5959 13.5959C17.3265 13.8653 16.9997 14 16.6154 14H1.3846ZM9 6.85385L0.769225 1.35578V12.6154C0.769225 12.7949 0.826917 12.9423 0.9423 13.0577C1.05768 13.1731 1.20512 13.2308 1.3846 13.2308H16.6154C16.7949 13.2308 16.9423 13.1731 17.0577 13.0577C17.1731 12.9423 17.2308 12.7949 17.2308 12.6154V1.35578L9 6.85385ZM9 5.96922L16.8808 0.769225H1.14423L9 5.96922ZM0.769225 1.35578V0.769225V12.6154C0.769225 12.7949 0.826917 12.9423 0.9423 13.0577C1.05768 13.1731 1.20512 13.2308 1.3846 13.2308H0.769225V1.35578Z" fill="black"/>
</svg>
