<svg width="18" height="14" viewBox="0 0 18 14" fill="none" xmlns="http://www.w3.org/2000/svg">
<path d="M18 1.3846V12.6154C18 12.9997 17.8653 13.3265 17.5959 13.5959C17.3265 13.8653 16.9997 14 16.6154 14H1.3846C1.00032 14 0.673475 13.8653 0.404075 13.5959C0.134692 13.3265 0 12.9997 0 12.6154V1.3846C0 1.00032 0.134692 0.673476 0.404075 0.404076C0.673475 0.134692 1.00032 0 1.3846 0H16.6154C16.9997 0 17.3265 0.134692 17.5959 0.404076C17.8653 0.673476 18 1.00032 18 1.3846ZM0.769225 3.9173H17.2308V1.3846C17.2308 1.23077 17.1667 1.08974 17.0385 0.961525C16.9103 0.833325 16.7692 0.769225 16.6154 0.769225H1.3846C1.23077 0.769225 1.08974 0.833325 0.961525 0.961525C0.833325 1.08974 0.769225 1.23077 0.769225 1.3846V3.9173ZM0.769225 5.93078V12.6154C0.769225 12.7692 0.833325 12.9103 0.961525 13.0385C1.08974 13.1667 1.23077 13.2308 1.3846 13.2308H16.6154C16.7692 13.2308 16.9103 13.1667 17.0385 13.0385C17.1667 12.9103 17.2308 12.7692 17.2308 12.6154V5.93078H0.769225Z" fill="black"/>
</svg>
