<svg width="18" height="14" viewBox="0 0 18 14" fill="none" xmlns="http://www.w3.org/2000/svg">
<path d="M7.23349 5.96166C6.38097 5.96166 5.67104 5.6813 5.10369 5.12059C4.53633 4.55985 4.25264 3.8466 4.25264 2.98084C4.25264 2.12831 4.53633 1.41837 5.10369 0.85102C5.67104 0.283674 6.38097 0 7.23349 0C8.086 0 8.79594 0.283674 9.36328 0.85102C9.93065 1.41837 10.2143 2.12831 10.2143 2.98084C10.2143 3.8466 9.93065 4.55985 9.36328 5.12059C8.79594 5.6813 8.086 5.96166 7.23349 5.96166ZM0 13.4595V11.9651C0 11.4815 0.120885 11.0715 0.362656 10.735C0.604444 10.3985 0.956517 10.1209 1.41887 9.90233C2.43368 9.44394 3.37463 9.10081 4.24172 8.87296C5.10882 8.64509 6.10608 8.53115 7.23349 8.53115H7.45109C7.52328 8.53115 7.59582 8.52453 7.66868 8.51128C7.61834 8.65966 7.58059 8.79379 7.55543 8.9137C7.53025 9.03358 7.50706 9.17103 7.48586 9.32603H7.23349C6.16834 9.32603 5.21414 9.42043 4.37089 9.60922C3.52765 9.798 2.66421 10.1289 1.78055 10.6018C1.399 10.7926 1.13933 10.9996 1.00155 11.2228C0.863773 11.4461 0.794883 11.6935 0.794883 11.9651V12.6646H7.50572C7.53886 12.8024 7.58258 12.9398 7.63688 13.0769C7.6912 13.214 7.75148 13.3415 7.81772 13.4595H0ZM13.9722 14L13.8529 12.7322C13.5204 12.6725 13.2001 12.5576 12.8921 12.3873C12.5841 12.2171 12.3267 12.0088 12.1201 11.7624L11.037 12.132L10.7688 11.7027L11.7246 10.9238C11.6239 10.676 11.5736 10.3813 11.5736 10.0395C11.5736 9.69766 11.6239 9.39627 11.7246 9.13527L10.7886 8.33641L11.0569 7.90716L12.1201 8.29665C12.3135 8.03699 12.5675 7.82535 12.8822 7.66174C13.1968 7.49812 13.5204 7.3865 13.8529 7.32688L13.9722 6.05903H14.5326L14.6518 7.32688C14.9711 7.3865 15.288 7.49812 15.6027 7.66174C15.9173 7.82535 16.178 8.03037 16.3846 8.27679L17.4478 7.90716L17.6962 8.31652L16.7602 9.11538C16.8742 9.3938 16.9311 9.69955 16.9311 10.0326C16.9311 10.3657 16.8742 10.6628 16.7602 10.9238L17.7161 11.7027L17.4677 12.132L16.3846 11.7624C16.1647 12.0088 15.9008 12.2171 15.5927 12.3873C15.2847 12.5576 14.9711 12.6725 14.6518 12.7322L14.5326 14H13.9722ZM14.2342 11.9074C14.7868 11.9074 15.236 11.7306 15.5818 11.3771C15.9276 11.0235 16.1005 10.577 16.1005 10.0377C16.1005 9.4851 15.927 9.03591 15.5801 8.69013C15.2331 8.34435 14.7833 8.17146 14.2307 8.17146C13.6914 8.17146 13.2455 8.34494 12.8931 8.69189C12.5407 9.03884 12.3645 9.48861 12.3645 10.0412C12.3645 10.5806 12.5413 11.0264 12.8949 11.3788C13.2484 11.7312 13.6949 11.9074 14.2342 11.9074ZM7.23349 5.16678C7.85217 5.16678 8.37117 4.96043 8.79047 4.54775C9.20977 4.13508 9.41942 3.61277 9.41942 2.98084C9.41942 2.36216 9.20977 1.84315 8.79047 1.42384C8.37117 1.00453 7.85217 0.794884 7.23349 0.794884C6.6148 0.794884 6.09581 1.00453 5.6765 1.42384C5.2572 1.84315 5.04755 2.36216 5.04755 2.98084C5.04755 3.61277 5.2572 4.13508 5.6765 4.54775C6.09581 4.96043 6.6148 5.16678 7.23349 5.16678Z" fill="black"/>
</svg>
